<svg xmlns="http://www.w3.org/2000/svg" viewBox="0 0 300 300"><path fill-rule="evenodd" d="M60 107.5V140H0v20h60v65h180v-64.971l30.25-.264 30.25-.265.283-10 .283-10-30.533.278-30.533.279V75H60zM80 150v55h140V95H80zm60.493-47.649c-8.15 3.796-15.183 13.686-17.05 23.978-.491 2.705-1.414 4.156-3.144 4.945-4.716 2.148-5.299 5.034-5.299 26.226 0 21.341.568 24.071 5.472 26.305 3.673 1.674 55.383 1.674 59.056 0 4.904-2.234 5.472-4.964 5.472-26.305 0-21.192-.583-24.078-5.299-26.226-1.73-.789-2.653-2.24-3.144-4.945-2.645-14.577-14.487-26.309-26.557-26.309-2.615 0-6.597.976-9.507 2.331m3.886 9.086c-1.716.747-4.295 2.897-5.73 4.779-2.339 3.066-5.649 10.631-5.649 12.91 0 .481 7.65.874 17 .874s17-.393 17-.874-.684-2.813-1.52-5.182c-3.965-11.24-12.453-16.271-21.101-12.507M.37 150c0 5.775.165 8.137.367 5.25s.202-7.613 0-10.5S.37 144.225.37 150M125 157.5V175h50v-35h-50z"/></svg>