<svg xmlns="http://www.w3.org/2000/svg" viewBox="0 0 300 300"><path fill-rule="evenodd" d="M64.542 92.72c-3.295.853-6.571 3.435-8.093 6.379C55.332 101.258 55 106.272 55 120.95V140H0v20h55v19.05c0 14.678.332 19.692 1.449 21.851 4.424 8.555 17.678 8.555 22.102 0 2.154-4.165 2.154-97.637 0-101.802-2.425-4.69-8.988-7.679-14.009-6.379m165 0c-3.295.853-6.571 3.435-8.093 6.379-2.154 4.165-2.154 97.637 0 101.802 4.424 8.555 17.678 8.555 22.102 0 1.117-2.159 1.449-7.173 1.449-21.851V160h55v-20h-55v-19.05c0-20.408-.538-23.106-5.214-26.17-2.756-1.807-7.522-2.765-10.244-2.06"/></svg>