<svg xmlns="http://www.w3.org/2000/svg" viewBox="0 0 300 300"><path fill-rule="evenodd" d="M118.5 104.386c-15.978 3.885-26.69 16.024-29.717 33.672L87.593 145H60v-5H0v20h60v-5.056l13.747.278 13.747.278.692 5.549c.923 7.402 4.261 16.065 8.181 21.233 10.193 13.438 29.221 16.952 42.894 7.922 7.179-4.742 11.8-13.637 17.381-33.454.445-1.581 2.177-1.75 17.925-1.75 14.121 0 17.433.261 17.433 1.374 0 3.014-3.229 10.259-5.789 12.988-3.053 3.255-9.573 6.583-12.961 6.616-2.072.02-2.249.478-2.236 5.772.026 11.151.568 11.549 11.234 8.255 11.822-3.651 20.176-13.587 23.336-27.755l1.617-7.25H240v5.029l30.25-.264 30.25-.265.283-10 .283-10-30.533.278-30.533.279V145h-32.68l-1.233-6.901c-3.378-18.9-14.964-30.099-31.139-30.099-15.196 0-25.466 10.117-30.633 30.178L142.557 145h-19.778c-22.312 0-21.262.455-18.304-7.93 3.274-9.278 10.73-15.897 20.1-17.844l3.854-.801-.249-4.962c-.561-11.182-.656-11.271-9.68-9.077m51.505 20.312c-3.893 2.007-7.011 7.021-9.361 15.052l-1.536 5.25h33.164l-.617-4.503c-1.784-13.015-12.246-20.649-21.65-15.799M.37 150c0 5.775.165 8.137.367 5.25s.202-7.613 0-10.5S.37 144.225.37 150m102.245 9.25c1.581 10.52 6.693 17.564 14.43 19.882 10.057 3.013 18.398-4.973 22.334-21.382l.659-2.75h-38.062z"/></svg>