<svg xmlns="http://www.w3.org/2000/svg" viewBox="0 0 300 300"><path fill-rule="evenodd" d="M128.631 102.017c-12.037 3.051-20.219 7.403-27.405 14.58-6.763 6.754-10.239 13.157-12.298 22.653L87.682 145H60v-5H0v20h60v-5h26.909l.58 3.75c2.174 14.061 6.281 22.851 14.16 30.303 4.984 4.713 16.333 11.016 22.459 12.472 2.535.603 2.665.394 4.625-7.412l2.018-8.033-6.126-2.044c-11.919-3.979-20.793-13.69-22.255-24.355l-.642-4.681h91.528l-.659 4.25c-1.633 10.54-7.901 18.275-18.577 22.925-2.463 1.073-4.62 2.091-4.792 2.264-.501.501 2.967 13.971 3.849 14.951 1.459 1.617 15.638-6.01 20.837-11.209C201.293 180.802 207 167.766 207 158.29V155h33v5.029l30.25-.264 30.25-.265.283-10 .283-10-30.533.278-30.533.279V145h-33.527l-1.235-5.25c-4.047-17.19-15.557-29.747-33.238-36.261-6.586-2.426-9.207-2.806-21.5-3.114-11.514-.289-15.397.002-21.869 1.642m1.717 16.349c-12.984 3.285-22.421 10.843-26.207 20.991l-1.918 5.143 44.545.26c24.499.144 44.764.041 45.033-.227.901-.901-2.888-9.367-5.873-13.124-4.099-5.158-9.725-9.083-16.595-11.577-7.342-2.666-30.76-3.547-38.985-1.466M.37 150c0 5.775.165 8.137.367 5.25s.202-7.613 0-10.5S.37 144.225.37 150"/></svg>