<svg xmlns="http://www.w3.org/2000/svg" viewBox="0 0 300 300"><path fill-rule="evenodd" d="M134.322 71.931c-3.947 1.068-9.711 3.141-12.809 4.606-11.672 5.522-24.45 18.296-29.967 29.957C88.348 113.254 85 125.87 85 131.16V135h9.725l.631-5.376c4.705-40.026 48.102-62.07 82.564-41.939 5.141 3.003 16.08 13.023 16.08 14.73 0 .61-2.951 1.955-6.557 2.988l-6.558 1.878 14.016 13.403c7.708 7.372 14.371 13.413 14.807 13.423.683.017 10.433-37.242 9.896-37.821-.109-.117-3.308.72-7.108 1.86l-6.911 2.073-2.359-2.86C188.167 79.104 172.836 71.015 152 70.333c-8.098-.266-12.142.1-17.678 1.598m8.683 64.764c-1.922.993-4.397 3.25-5.5 5.016l-2.005 3.212-37.75.038L60 145v-5H0v20h60v-5l37.75.039 37.75.038 2.005 3.212c5.547 8.883 20.199 8.67 25.341-.368l1.654-2.908 37.75-.007L240 155v5.029l30.25-.264 30.25-.265.283-10 .283-10-30.533.278-30.533.279V145l-37.75-.006-37.75-.007-1.654-2.908c-3.586-6.303-13.077-8.879-19.841-5.384M.37 150c0 5.775.165 8.137.367 5.25s.202-7.613 0-10.5S.37 144.225.37 150m89.149 16.17c-.818 2.267-9.336 37.317-9.125 37.544.11.117 3.31-.72 7.11-1.86l6.911-2.073 2.359 2.86c10.298 12.484 19.444 19.244 32.182 23.786 7.789 2.777 9.649 3.047 21.044 3.047s13.255-.27 21.044-3.047c13.954-4.976 25.48-13.976 33.639-26.269 4.631-6.976 9.195-20.041 9.995-28.613l.611-6.545h-10.014l-.631 5.376c-4.705 40.026-48.102 62.07-82.564 41.939-5.131-2.997-16.083-13.025-16.074-14.717.004-.604 2.92-1.998 6.481-3.098l6.475-2-14.482-13.83c-9.068-8.66-14.661-13.332-14.961-12.5"/></svg>