<svg xmlns="http://www.w3.org/2000/svg" viewBox="0 0 300 300"><path fill-rule="evenodd" d="M53.071 136.695c-4.801 2.528-7.281 6.353-7.766 11.981-.76 8.823 4.616 15.265 13.371 16.019 8.823.76 15.265-4.616 16.019-13.371.481-5.584-1.658-10.555-5.871-13.643-3.785-2.774-11.446-3.254-15.753-.986m45 0c-4.801 2.528-7.281 6.353-7.766 11.981-.76 8.823 4.616 15.265 13.371 16.019 8.823.76 15.265-4.616 16.019-13.371.481-5.584-1.658-10.555-5.871-13.643-3.785-2.774-11.446-3.254-15.753-.986m45 0c-4.801 2.528-7.281 6.353-7.766 11.981-.76 8.823 4.616 15.265 13.371 16.019 8.823.76 15.265-4.616 16.019-13.371.481-5.584-1.658-10.555-5.871-13.643-3.785-2.774-11.446-3.254-15.753-.986m45 0c-4.801 2.528-7.281 6.353-7.766 11.981-.76 8.823 4.616 15.265 13.371 16.019 8.823.76 15.265-4.616 16.019-13.371.481-5.584-1.658-10.555-5.871-13.643-3.785-2.774-11.446-3.254-15.753-.986m45 0c-4.801 2.528-7.281 6.353-7.766 11.981-.76 8.823 4.616 15.265 13.371 16.019 8.823.76 15.265-4.616 16.019-13.371.481-5.584-1.658-10.555-5.871-13.643-3.785-2.774-11.446-3.254-15.753-.986M0 150v10h30v-20H0zm270 0v10h30v-20h-30z"/></svg>