<svg xmlns="http://www.w3.org/2000/svg" viewBox="0 0 300 300"><path fill-rule="evenodd" d="M89.419 93.349c-.284.742-.383 4.455-.218 8.25l.299 6.901 43.236.5 43.236.5-42.236 15.894c-23.23 8.742-42.983 16.729-43.896 17.75-1.469 1.642-3.288 1.856-15.75 1.856H60v-5H0v20h60v-5h14.071c9.924 0 14.44.368 15.322 1.25.688.688 20.311 8.675 43.607 17.75l42.357 16.5-42.929.5-42.928.5v16l54.25.259 54.25.258-.014-11.258-.013-11.259-29.737-11.465c-16.355-6.306-34.011-13.145-39.236-15.198l-9.5-3.733 60.25-.052L240 155v5.029l30.25-.264 30.25-.265.283-10 .283-10-30.533.278-30.533.279V145h-58.167c-31.991 0-57.979-.166-57.75-.368s16.954-6.56 37.167-14.127l36.75-13.76V92h-54.031c-44.422 0-54.124.24-54.55 1.349M.37 150c0 5.775.165 8.137.367 5.25s.202-7.613 0-10.5S.37 144.225.37 150"/></svg>