<svg xmlns="http://www.w3.org/2000/svg" viewBox="0 0 300 300"><path fill-rule="evenodd" d="M50 117.5V140H0v20h50v45h21.05c22.899 0 25.495-.512 27.755-5.472 1.511-3.316 1.511-5.74 0-9.056C96.81 186.093 93.263 185 81.05 185H70v-70h11.05c12.213 0 15.76-1.093 17.755-5.472 1.511-3.316 1.511-5.74 0-9.056C96.545 95.512 93.949 95 71.05 95H50zm155.11-21.104c-4.732 2.622-6.309 8.384-3.685 13.459 2.158 4.173 5.487 5.145 17.622 5.145H230v70h-11.05c-12.213 0-15.76 1.093-17.755 5.472-1.511 3.316-1.511 5.74 0 9.056 2.26 4.96 4.856 5.472 27.755 5.472H250v-45h50v-20h-50V95l-21.25.035c-15.713.027-21.873.381-23.64 1.361M98.071 136.695c-4.801 2.528-7.281 6.353-7.766 11.981-.76 8.823 4.616 15.265 13.371 16.019 8.823.76 15.265-4.616 16.019-13.371.481-5.584-1.658-10.555-5.871-13.643-3.785-2.774-11.446-3.254-15.753-.986m45 0c-4.801 2.528-7.281 6.353-7.766 11.981-.76 8.823 4.616 15.265 13.371 16.019 8.823.76 15.265-4.616 16.019-13.371.481-5.584-1.658-10.555-5.871-13.643-3.785-2.774-11.446-3.254-15.753-.986m45 0c-4.801 2.528-7.281 6.353-7.766 11.981-.76 8.823 4.616 15.265 13.371 16.019 8.823.76 15.265-4.616 16.019-13.371.481-5.584-1.658-10.555-5.871-13.643-3.785-2.774-11.446-3.254-15.753-.986"/></svg>