<svg xmlns="http://www.w3.org/2000/svg" viewBox="0 0 100 100" width="100" height="100" role="img" aria-label="terrain desert">
<title>terrain desert</title>
<path class="ink" fill="#ffffff" fill-rule="evenodd" d="M14.25 52.43C13.56 51.71 13.33 51.13 13.33 50.13C13.33 49.1 13.55 48.59 14.25 47.93L15.17 47.06L41.1 46.82L67.04 46.58L68.02 47.52C69.38 48.82 69.4 50.83 68.08 52.07L67.17 52.94L41.17 53.17L15.17 53.41L14.25 52.43ZM81.33 53.09C78.48 52.75 77.29 49.46 79.32 47.52C80.25 46.62 80.41 46.58 82.67 46.74C84.69 46.89 85.19 47.05 86.02 47.85C87.35 49.13 87.39 51.06 86.1 52.4C85.18 53.36 84.5 53.46 81.33 53.09Z"/>
</svg>
