<svg xmlns="http://www.w3.org/2000/svg" viewBox="0 0 300 300"><path fill-rule="evenodd" d="M22.462 68.246c-.263.69-.362 37.929-.22 82.754l.258 81.5h255v-165l-127.28-.254c-101.297-.202-127.378.002-127.758 1M38 150v67h224V83H38zm30.143-10.154C65.314 144.748 63 149.317 63 150s2.314 5.252 5.143 10.154l5.143 8.911 10.588-.283 10.587-.282 5.37-9.25 5.371-9.25-5.371-9.25-5.37-9.25-10.587-.282-10.588-.283zm135.551-5.096c-1.282 2.063-3.801 6.348-5.599 9.524l-3.269 5.774 5.356 9.226 5.357 9.226 10.587.282 10.588.283 5.143-8.911C234.686 155.252 237 150.683 237 150s-2.306-5.238-5.124-10.121L226.751 131h-20.726z"/></svg>