<svg xmlns="http://www.w3.org/2000/svg" viewBox="0 0 300 300"><path fill-rule="evenodd" d="M6.899 2.101c-1.155 1.155-3.068 4.193-4.25 6.75L.5 13.5v273l2.149 4.649c1.182 2.557 3.095 5.595 4.25 6.75L9 300h282.095l2.407-2.597c1.323-1.428 3.142-4.69 4.041-7.25s2.044-5.434 2.546-6.389c1.301-2.48 1.213-269.069-.089-268.264-.55.34-1.01-.196-1.022-1.191-.032-2.655-3.481-9.812-5.889-12.22L291 0H9zM.486 150c0 73.975.119 104.237.264 67.25.145-36.988.145-97.513 0-134.5C.605 45.762.486 76.025.486 150M20 150v130h260V20H20zM37.316 31.943C29.869 35.325 30 34.419 30 82.5s-.131 47.175 7.316 50.557c3.627 1.646 6.645 1.899 22.684 1.899 20.925 0 25.467-1.09 28.434-6.828 2.352-4.549 2.352-86.707 0-91.256-2.967-5.738-7.509-6.828-28.434-6.828-16.039 0-19.057.253-22.684 1.899M45 82.5V120h30V45H45zm-7.684 84.443C29.869 170.325 30 169.419 30 217.5s-.131 47.175 7.316 50.557c3.627 1.646 6.645 1.899 22.684 1.899 20.925 0 25.467-1.09 28.434-6.828 2.352-4.549 2.352-86.707 0-91.256-2.967-5.738-7.509-6.828-28.434-6.828-16.039 0-19.057.253-22.684 1.899M45 217.5V255h30v-75H45z"/></svg>