<svg xmlns="http://www.w3.org/2000/svg" viewBox="0 0 300 300"><path fill-rule="evenodd" d="M4.235 63.423.5 66.846v151.308l3.735 3.423L7.971 225h283.876l3.026-2.547c6.419-5.401 6.127-1.504 6.127-81.666 0-48.349-.337-72.697-1-72.287-.55.34-1-.037-1-.837 0-.801-1.591-2.852-3.535-4.559L291.93 60H7.971zM.475 142.5c0 40.7.124 57.204.275 36.676s.151-53.828 0-74C.598 85.004.475 101.8.475 142.5m19.525 0V205h260V80H20zm17.316-50.557C29.869 95.325 30 94.419 30 142.5s-.131 47.175 7.316 50.557c3.627 1.646 6.645 1.899 22.684 1.899 20.925 0 25.467-1.09 28.434-6.828 2.352-4.549 2.352-86.707 0-91.256-2.967-5.738-7.509-6.828-28.434-6.828-16.039 0-19.057.253-22.684 1.899M45 142.5V180h30v-75H45z"/></svg>