<svg xmlns="http://www.w3.org/2000/svg" viewBox="0 0 300 300"><path fill-rule="evenodd" d="M30.094 104.609C27.842 107.753 26 110.62 26 110.981s4.672 3.91 10.381 7.889l10.382 7.235-3.632 7.077c-3.51 6.842-3.631 7.436-3.631 17.818 0 10.347.13 10.994 3.568 17.695l3.568 6.954-10.353 7.363c-5.84 4.153-10.15 7.891-9.888 8.576.257.668 2.115 3.51 4.131 6.315l3.664 5.101 8.155-5.723a3796 3796 0 0 1 12.155-8.5l4-2.778 6.5 2.748 6.5 2.749h158l6.491-2.731 6.492-2.732 5.008 3.383c2.755 1.86 8.229 5.677 12.164 8.483l7.155 5.1 3.664-5.1c2.016-2.805 3.874-5.647 4.131-6.315.262-.685-4.048-4.423-9.888-8.576l-10.353-7.363 3.568-6.954c3.438-6.701 3.568-7.348 3.568-17.695 0-10.371-.124-10.982-3.61-17.776l-3.61-7.037 10.36-7.285c5.698-4.007 10.36-7.576 10.36-7.931s-1.842-3.218-4.094-6.362l-4.093-5.716-2.657 1.734c-1.461.955-6.481 4.491-11.156 7.859s-9.001 6.425-9.614 6.794-2.926-.205-5.14-1.275c-2.215-1.07-5.988-2.398-8.386-2.951-5.91-1.362-152.81-1.362-158.72 0-2.398.553-6.171 1.881-8.386 2.951s-4.527 1.643-5.14 1.275-4.939-3.426-9.614-6.794-9.695-6.904-11.156-7.859l-2.657-1.734zm43.709 21.79c-6.577 1.771-11.967 5.623-15.652 11.187-2.87 4.332-3.151 5.465-3.151 12.684 0 5.125.554 9.095 1.566 11.229 2.189 4.612 7.843 10.003 13.068 12.459 4.373 2.056 5.251 2.075 82.257 1.81l77.836-.268 4.888-3.336c2.688-1.834 6.237-5.209 7.886-7.5 2.713-3.767 3.03-5.021 3.322-13.164.314-8.735.228-9.144-2.937-13.891-3.862-5.791-10.186-10.079-17.034-11.547-7.584-1.627-145.893-1.32-152.049.337"/></svg>