<svg xmlns="http://www.w3.org/2000/svg" viewBox="0 0 300 300"><path fill-rule="evenodd" d="M20 95v95h20v-25h220v25h20V0H20zm20-7.5V155h220V20H40zm86 7V134h5c4.693 0 5-.156 5-2.551v-2.551l3.62 2.761c2.844 2.169 4.967 2.847 9.901 3.161 7.797.497 12.599-1.03 17.682-5.622 5.182-4.682 7.577-9.594 8.766-17.981 2.365-16.674-4.003-30.655-15.791-34.672-7.841-2.672-16.343-1.42-21.391 3.148-1.707 1.545-1.787 1.03-1.787-11.538V55h-11zm18-8.33c-1.925 1.29-4.543 4.368-5.817 6.838-2.048 3.97-2.277 5.61-1.97 14.109.313 8.68.616 9.97 3.108 13.237 3.5 4.589 6.125 5.979 11.286 5.979 8.944 0 14.736-7.939 14.834-20.333.105-13.366-4.555-20.712-13.782-21.721-3.213-.352-4.955.078-7.659 1.891"/></svg>