<svg xmlns="http://www.w3.org/2000/svg" viewBox="0 0 300 300"><path fill-rule="evenodd" d="M0 150.003v150.003l150.25-.253 150.25-.253.253-149.75L301.007 0H0zm.487.497c0 82.5.118 116.102.263 74.672.144-41.431.144-108.931 0-150C.605 34.102.487 68 .487 150.5M25 40v15h30V25H25zm40 0v15h35V25H65zm45 0v15h35V25h-35zm45 0v15h35V25h-35zm45 0v15h35V25h-35zm45 0v15h30V25h-30zM25 82.5V100h30V65H25zm40 0V100h35V65H65zm45 0V100h35V65h-35zm45 0V100h35V65h-35zm45 0V100h35V65h-35zm45 0V100h30V65h-30zm-220 45V145h30v-35H25zm40 0V145h35v-35H65zm45 0V145h35v-35h-35zm45 0V145h35v-35h-35zm45 0V145h35v-35h-35zm45 0V145h30v-35h-30zm-220 45V190h30v-35H25zm40 0V190h35v-35H65zm45 0V190h35v-35h-35zm45 0V190h35v-35h-35zm45 0V190h35v-35h-35zm45 0V190h30v-35h-30zm-220 45V235h30v-35H25zm40 0V235h35v-35H65zm45 0V235h35v-35h-35zm45 0V235h35v-35h-35zm45 0V235h35v-35h-35zm45 0V235h30v-35h-30zM25 260v15h30v-30H25zm40 0v15h35v-30H65zm45 0v15h35v-30h-35zm45 0v15h35v-30h-35zm45 0v15h35v-30h-35zm45 0v15h30v-30h-30z"/></svg>