<svg xmlns="http://www.w3.org/2000/svg" viewBox="0 0 300 300"><path fill-rule="evenodd" d="M137.5 71.079c-21.394 1.637-44.45 8.167-64.917 18.388L60.5 95.5l-.259 52.236-.259 52.236 13.259 6.499c15.298 7.499 29.824 12.473 45.925 15.726 16.369 3.307 45.299 3.307 61.668 0 16.101-3.253 30.627-8.227 45.925-15.726l13.259-6.499-.259-52.182-.259-52.182-8-4.264c-28.517-15.199-63.011-22.636-94-20.265m-8.63 16.393c-8.461 1.383-18.162 3.612-24.62 5.655L101 94.155v107.626l8.25 2.23c15.69 4.242 23.645 5.271 40.75 5.271s25.06-1.029 40.75-5.271l8.25-2.23V94.056l-5.583-1.623c-19.826-5.764-46.913-7.846-64.547-4.961M91.25 97.584 88 99.006v97.691l4 1.571 4 1.571V147.92c0-28.556-.338-51.883-.75-51.838-.412.044-2.213.721-4 1.502M204 147.92v51.919l4-1.571 4-1.571v-97.67l-3.622-1.514c-1.992-.832-3.792-1.513-4-1.513S204 119.364 204 147.92M78.25 103.745 75 105.363v85.267l3.534 1.685c1.944.927 3.744 1.685 4 1.685S83 173.3 83 148s-.338-45.971-.75-45.936-2.213.792-4 1.681M217 148c0 25.3.21 46 .466 46s2.056-.758 4-1.685L225 190.63v-85.26l-3.534-1.685c-1.944-.927-3.744-1.685-4-1.685S217 122.7 217 148m-73.5-25.274c-7.115 2.453-12.941 8.588-15.144 15.948-2.28 7.613-2.233 19.225.106 26.236 3.313 9.929 13.385 17.09 24.038 17.09 9.984 0 19.577-6.397 22.988-15.328 2.321-6.079 1.666-7.379-3.942-7.825-4.542-.361-4.611-.321-5.576 3.263-1.422 5.281-4.533 8.695-9.024 9.904-5.546 1.494-10.992-.164-14.805-4.507-3.688-4.199-4.458-7.841-3.995-18.896.277-6.615.805-9.07 2.416-11.227 3.641-4.876 7.05-6.769 12.184-6.766 5.989.002 9.607 2.307 11.654 7.424l1.57 3.924 4.765-.624c2.621-.343 4.95-.782 5.175-.976.937-.806-2.153-8.501-4.562-11.365-5.854-6.956-17.96-9.685-27.848-6.275"/></svg>