<svg xmlns="http://www.w3.org/2000/svg" viewBox="0 0 300 300"><path fill-rule="evenodd" d="M45 150v60h210V90H45zm15 0v45h12v-90H60zm18 0v45h9v-90h-9zm15 0v45h114v-90H93zm120 0v45h9v-90h-9zm15 0v45h12v-90h-12zm-84.5-26.274c-7.115 2.453-12.941 8.588-15.144 15.948-2.28 7.613-2.233 19.225.106 26.236 3.313 9.929 13.385 17.09 24.038 17.09 9.984 0 19.577-6.397 22.988-15.328 2.321-6.079 1.666-7.379-3.942-7.825-4.542-.361-4.611-.321-5.576 3.263-1.422 5.281-4.533 8.695-9.024 9.904-5.546 1.494-10.992-.164-14.805-4.507-3.688-4.199-4.458-7.841-3.995-18.896.277-6.615.805-9.07 2.416-11.227 3.641-4.876 7.05-6.769 12.184-6.766 5.989.002 9.607 2.307 11.654 7.424l1.57 3.924 4.765-.624c2.621-.343 4.95-.782 5.175-.976.937-.806-2.153-8.501-4.562-11.365-5.854-6.956-17.96-9.685-27.848-6.275"/></svg>