<svg xmlns="http://www.w3.org/2000/svg" viewBox="0 0 300 300"><path fill-rule="evenodd" d="M150 14.754v9.972l6.75.546c3.713.3 6.879.421 7.036.268.682-.664 2.286-18.802 1.713-19.374-.348-.349-3.978-.803-8.066-1.009L150 4.781zm-26.75-7.482c-4.378.842-5.243 1.359-5.208 3.119.051 2.559 3.303 16.287 4.031 17.015.286.286 3.576.013 7.312-.606l6.793-1.125-.549-4.088a609 609 0 0 1-1.204-9.837c-.741-6.503-.709-6.49-11.175-4.478m58.439 2.478c-.886 1.549-3.822 16.351-3.459 17.44.208.624 3.199 1.907 6.645 2.851l6.267 1.715 1.037-2.628c.57-1.445 2.083-5.657 3.363-9.358l2.325-6.731-6.539-2.019c-7.066-2.183-8.973-2.434-9.639-1.27m-87.083 6.276c-3.773 1.592-7.032 3.066-7.241 3.276-.585.585 7.513 17.698 8.377 17.701.417.001 3.487-1.156 6.823-2.572l6.066-2.574-3.08-8.859c-1.694-4.873-3.306-9.086-3.582-9.363-.277-.276-3.59.8-7.363 2.391m113.547 12.231c-2.282 4.994-4.037 9.176-3.901 9.292.807.686 11.376 5.916 11.988 5.932 1.116.029 10.688-15.789 10.115-16.715-.459-.744-8.774-5.36-12.455-6.915-1.262-.533-2.475 1.241-5.747 8.406M66.25 31.622C62.813 34.095 60 36.484 60 36.931c0 .692 8.506 11.869 10.962 14.405C71.818 52.22 83 45.303 83 43.89c0-.741-8.392-14.376-9.894-16.076-.333-.378-3.418 1.336-6.856 3.808m167.729 12.406c-3.014 3.865-5.479 7.352-5.479 7.75s2.164 2.716 4.809 5.154l4.81 4.432 7.158-7.158 7.158-7.158-5.468-4.979c-3.007-2.738-5.927-4.999-6.488-5.024s-3.487 3.117-6.5 6.983M41.75 53.442C39.138 56.421 37 59.228 37 59.679s1.688 2.148 3.75 3.769a3317 3317 0 0 1 7.463 5.888l3.713 2.939 4.497-4.887c2.474-2.689 4.515-5.351 4.537-5.917.05-1.288-12.163-13.476-13.487-13.458-.535.007-3.111 2.45-5.723 5.429m214.164 11.606c-3.528 2.807-6.79 5.469-7.25 5.914-1.345 1.303 6.402 12.226 8.186 11.542.831-.319 4.795-2.66 8.808-5.202l7.297-4.623-4.322-6.038c-2.377-3.32-4.768-6.186-5.314-6.368s-3.878 1.967-7.405 4.775M25.685 75.233C22.065 81.163 20 85.231 20 86.432c0 1.125 16.858 10.111 17.523 9.341.658-.76 5.941-11.369 5.958-11.962.018-.647-9.744-7.276-14.327-9.728-1.757-.941-2.304-.76-3.469 1.15M271.25 90.991c-4.538 2.133-8.25 4.302-8.25 4.819 0 1.763 4.972 12.19 5.812 12.19 1.153 0 14.755-4.658 16.573-5.676 1.25-.699 1.012-1.935-1.551-8.075-1.664-3.987-3.321-7.224-3.68-7.192-.36.031-4.366 1.801-8.904 3.934M10.907 109.08c-1.161 3.821-1.893 7.513-1.628 8.204.533 1.389 17.511 5.259 18.543 4.227 1.281-1.28 3.889-12.571 3.028-13.104-.485-.299-4.695-1.834-9.357-3.409l-8.476-2.865zm270.912 10.342c-4.774 1.143-8.92 2.324-9.213 2.624s-.026 3.6.592 7.331l1.125 6.785 3.088-.526c1.699-.29 6.127-.829 9.839-1.198 5.451-.542 6.75-1.001 6.75-2.388 0-2.676-2.211-13.483-2.891-14.128-.335-.318-4.515.357-9.29 1.5M5.657 136.149c-.346 1.293-.636 4.939-.643 8.101L5 150h20v-3.875c0-2.131.27-5.223.599-6.87.676-3.381.344-3.506-12.706-4.802-6.342-.629-6.632-.561-7.236 1.696m269.082 20.101c-.291 3.988-.37 7.419-.176 7.625.757.803 18.535 2.36 19.212 1.683.395-.394.879-4.281 1.077-8.638l.36-7.92h-19.943zm-260.72 8.943c-4.114.514-7.667 1.122-7.895 1.35s.165 3.799.872 7.935C7.843 179.426 8.738 182 9.613 182c2.194 0 16.831-3.261 17.605-3.922.395-.338.215-3.643-.398-7.346-1.261-7.611-.133-7.122-12.801-5.539M271.54 179.25c-1.171 3.679-3.418 12.192-3.243 12.284.112.059 4.23 1.532 9.151 3.275 6.702 2.373 9.137 2.863 9.701 1.95 1.308-2.116 4.183-13.76 3.553-14.39-.639-.639-15.312-4.277-17.483-4.335-.705-.019-1.461.529-1.679 1.216M22.5 194.577c-5.769 2.096-8.902 3.746-8.728 4.596.406 1.986 5.396 13.827 5.826 13.827 1.536 0 17.386-8.666 17.325-9.473-.042-.565-1.279-3.545-2.75-6.623l-2.673-5.596zm239.164 11.687c-2.28 3.739-5.664 9.829-5.664 10.193 0 .915 16.242 10.511 16.999 10.044 1.147-.71 7.001-11.542 7.001-12.956 0-.604-3.819-2.993-8.486-5.308l-8.486-4.209zm-226.929 15.92-7.765 5.032 4.359 6.09c2.398 3.35 4.806 6.239 5.352 6.421.798.266 11.108-7.255 14.655-10.689 1.01-.979-6.155-12.07-7.728-11.962-.609.042-4.602 2.341-8.873 5.108m208.073 11.205-4.692 5.279 6.717 6.666c3.694 3.666 7.156 6.66 7.692 6.653 1.15-.015 10.496-10.469 10.429-11.666-.043-.772-14.341-12.385-15.101-12.266-.194.031-2.464 2.431-5.045 5.334M54.221 245.277c-3.421 3.452-6.215 6.715-6.208 7.25.015 1.149 10.47 10.494 11.666 10.427.452-.025 3.448-3.404 6.659-7.508l5.838-7.462-4.838-4.452c-2.661-2.449-5.301-4.47-5.867-4.492s-3.828 2.785-7.25 6.237m168.279 6.289c-2.75 1.901-5.143 3.879-5.317 4.396s2.011 4.569 4.857 9.005l5.173 8.065 6.144-4.397c3.379-2.419 6.143-4.889 6.143-5.489 0-1.196-10.637-15.18-11.479-15.091-.286.03-2.771 1.61-5.521 3.511m-144.338 12.56c-2.788 4.518-4.857 8.559-4.597 8.98.661 1.069 11.551 6.894 12.89 6.894 1.008 0 10.032-16.894 9.345-17.496-.262-.23-10.224-5.483-11.934-6.293-.349-.165-2.916 3.396-5.704 7.915m118.675 1.701-5.664 2.673 3.311 9c2.153 5.853 3.784 8.905 4.664 8.728 1.986-.399 13.852-5.389 13.852-5.826 0-1.536-8.666-17.386-9.473-17.325-.565.042-3.576 1.279-6.69 2.75m-91.52 11.641-3.132 9.509 6.513 2.011c9.944 3.072 8.969 3.927 12.326-10.819.683-2.997.834-5.674.345-6.114-.478-.431-2.949-1.286-5.49-1.901s-5.253-1.36-6.025-1.657c-1.032-.395-2.236 1.986-4.537 8.971m64.334-4.211-5.849.999.639 5.622c1.452 12.772 1.768 14.122 3.307 14.122 4.439 0 14.252-2.486 14.252-3.611 0-1.251-2.608-13.258-3.614-16.639-.573-1.925-.415-1.916-8.735-.493m-33.941 2.895c-.306 1.291-.862 5.771-1.237 9.954-.663 7.401-.617 7.623 1.673 8.237 1.295.346 4.942.636 8.104.643L150 295v-20h-3.875c-2.131 0-5.221-.269-6.867-.598-2.553-.511-3.073-.254-3.548 1.75"/></svg>