<svg xmlns="http://www.w3.org/2000/svg" viewBox="0 0 300 300"><path fill-rule="evenodd" d="M131.43 5.977C77.486 13.642 32.453 49.681 13.943 100c-1.72 4.675-4.303 13.45-5.739 19.5-2.351 9.9-2.613 12.951-2.613 30.5s.262 20.6 2.613 30.5c6.878 28.966 19.549 52.123 39.361 71.935s42.969 32.483 71.935 39.361c9.9 2.351 12.951 2.613 30.5 2.613s20.6-.262 30.5-2.613c28.966-6.878 52.123-19.549 71.935-39.361s32.483-42.969 39.361-71.935c2.351-9.9 2.613-12.951 2.613-30.5s-.262-20.6-2.613-30.5c-6.878-28.966-19.549-52.123-39.361-71.935C232.727 27.858 209.272 14.984 181 8.357c-8.276-1.94-13.995-2.544-27-2.852-9.075-.215-19.231-.003-22.57.472m2.07 20.168c-17.757 2.264-37.917 10.044-54.093 20.878C69.272 53.81 53.81 69.272 47.023 79.407c-24.962 37.272-28.802 84.043-10.114 123.186 6.856 14.361 13.983 24.481 25 35.498 42.732 42.732 107.967 48.852 158.684 14.886 10.135-6.787 25.597-22.249 32.384-32.384 29.105-43.459 29.105-97.727 0-141.186-6.787-10.135-22.249-25.597-32.384-32.384-26.044-17.442-56.594-24.765-87.093-20.878"/></svg>