<svg xmlns="http://www.w3.org/2000/svg" viewBox="0 0 300 300"><path fill-rule="evenodd" d="M96.743 68.504c-9.912 19.835-16.723 34.624-16.694 36.25.027 1.51 7.136 38.071 15.799 81.246l15.75 78.5h76.804l15.75-78.5c8.663-43.175 15.772-79.736 15.799-81.246.029-1.626-6.782-16.415-16.694-36.25L186.514 35h-73.028zm34.495-11.754c4.341 16.131 18.392 64.24 18.762 64.24s14.421-48.109 18.762-64.24C169.199 55.128 167.83 55 150 55s-19.199.128-18.762 1.75m-21.677 32.127-8.894 17.877 10.898 54.591c5.995 30.025 11.196 54.268 11.56 53.873.363-.395 4.788-15.228 9.833-32.962l9.172-32.245-11.267-39.505C124.666 88.778 119.339 71 119.026 71s-4.573 8.045-9.465 17.877m59.576 21.629-11.267 39.505 9.172 32.245c5.045 17.734 9.47 32.567 9.833 32.962.364.395 5.565-23.848 11.56-53.873l10.898-54.591-8.894-17.877C185.547 79.045 181.288 71 180.974 71c-.313 0-5.64 17.778-11.837 39.506m-28.533 99.749c-4.892 17.185-9.107 32.032-9.366 32.995-.437 1.622.932 1.75 18.762 1.75s19.199-.128 18.762-1.75c-4.341-16.131-18.392-64.24-18.762-64.24-.275 0-4.503 14.06-9.396 31.245"/></svg>