<svg xmlns="http://www.w3.org/2000/svg" viewBox="0 0 300 300"><path fill-rule="evenodd" d="M10.11 6.396c-4.482 2.484-6.306 8.368-4.006 12.92.607 1.201 29.967 31.095 65.243 66.43l64.14 64.246-64.684 64.754C27.115 258.481 5.902 280.393 5.451 282.25c-1.865 7.68 4.619 14.164 12.299 12.299 1.857-.451 23.768-21.663 67.5-65.348l64.75-64.68 64.75 64.68c43.732 43.685 65.643 64.897 67.5 65.348 7.68 1.865 14.164-4.619 12.299-12.299-.451-1.857-21.663-23.768-65.348-67.5L164.521 150l64.68-64.75c43.685-43.732 64.897-65.643 65.348-67.5 1.865-7.68-4.619-14.164-12.299-12.299-1.857.451-23.769 21.664-67.504 65.352l-64.754 64.684-64.246-64.14C50.411 36.071 20.517 6.711 19.316 6.104c-2.872-1.452-6.254-1.345-9.206.292"/></svg>