<svg xmlns="http://www.w3.org/2000/svg" viewBox="0 0 300 300"><path fill-rule="evenodd" d="M158.239 134.074c-7.768 3.063-14.528 9.982-17.651 18.069-11.76 30.447 3.004 56.878 42.286 75.701l10.094 4.837-2.234 1.988c-1.229 1.093-8.106 5.821-15.284 10.506-16.756 10.938-25.416 18.979-29.605 27.489-2.796 5.679-3.234 7.712-3.643 16.896l-.464 10.44H158v-9.304c0-14.624 1.65-16.597 29.847-35.696 16.865-11.424 21.017-15.568 21.855-21.815.986-7.354-1.783-10.163-17.474-17.726-20.805-10.027-31.843-18.949-37.398-30.228-3.289-6.678-3.281-21.471.015-28.461 2.511-5.324 8.8-9.785 13.743-9.748 4.52.034 10.887 3.4 15.886 8.4 4.811 4.81 13.541 17.619 17.848 26.185 4.864 9.676 10.543 14.393 17.33 14.393 5.106 0 11.296-4.154 23.588-15.826C263.234 161.185 269.732 158 288.475 158H300v-16.304l-12.458.589c-22.309 1.054-33.496 6.548-55.279 27.144-6.73 6.364-12.461 11.571-12.735 11.571-.275 0-1.91-2.812-3.635-6.25-9.181-18.298-22.55-34.042-33.374-39.303-7.889-3.835-16.763-4.337-24.28-1.373"/></svg>