<svg xmlns="http://www.w3.org/2000/svg" viewBox="0 0 300 300"><path fill-rule="evenodd" d="M68.683 68.392c-5.764 1.595-11.809 7.062-15.256 13.799-2.812 5.494-5.37 14.539-8.965 31.7-2.889 13.791-5.531 21.656-8.575 25.526L33.855 142H0v16h14.951c19.236 0 24.028-1.017 29.785-6.324 7.383-6.806 10.295-14.281 15.802-40.567 2.889-13.791 5.531-21.656 8.575-25.526C70.751 83.501 72.003 83 75.57 83c3.685 0 5.098.609 8.46 3.646 7.836 7.079 12.435 19.751 21.543 59.354 8.937 38.859 14.373 52.998 24.125 62.751 6.011 6.011 12.151 8.617 20.302 8.617 12.824 0 21.847-6.958 29.509-22.756 5.711-11.775 9.211-25.68 14.991-59.558 5.347-31.341 7.315-39.782 10.951-46.958 4.869-9.607 7.504-6.82 21.987 23.248 10.98 22.798 15.836 30.768 22.603 37.097 8.815 8.246 11.644 9.035 32.459 9.048l18 .011.288-8 .287-8-17.287.271c-15.771.247-17.57.097-20.502-1.713-5.368-3.314-9.835-10.482-22.345-35.849-10.007-20.291-12.841-25.175-17.21-29.66-8.456-8.68-17.176-9.487-25.312-2.344-8.13 7.138-11.923 19.337-18.98 61.048-2.52 14.892-5.694 31.39-7.053 36.662-3.288 12.752-8.75 24.277-13.568 28.63-3.285 2.968-4.527 3.455-8.818 3.455-4.341 0-5.522-.477-9.03-3.646-7.836-7.079-12.435-19.751-21.543-59.354-8.937-38.859-14.373-52.998-24.125-62.751-7.481-7.48-17.4-10.408-26.619-7.857M.349 150c0 4.675.173 6.588.383 4.25s.211-6.162 0-8.5c-.21-2.338-.383-.425-.383 4.25"/></svg>