<svg xmlns="http://www.w3.org/2000/svg" viewBox="0 0 300 300"><path fill-rule="evenodd" d="M0 150.003v150.003l150.25-.253 150.25-.253.253-149.75L301.007 0H0zm.487.497c0 82.5.118 116.102.263 74.672.144-41.431.144-108.931 0-150C.605 34.102.487 68 .487 150.5M20 150v130h260V20H20zm143.791-98.919c-6.995 1.025-13.06 3.962-18.126 8.775C138.27 66.884 136 74.827 136 93.684V105h-20v18h20v117h24V123h26v-18h-26.211l.356-11.795c.395-13.13 1.403-15.813 7.114-18.934 2.58-1.41 5.438-1.748 14.006-1.658 10.19.108 10.79.001 11.231-2 2.34-10.639 3.186-17.795 2.148-18.17-1.831-.659-18.854-2.438-22.144-2.313-1.65.063-5.569.491-8.709.951"/></svg>