<svg xmlns="http://www.w3.org/2000/svg" viewBox="0 0 300 300"><path fill-rule="evenodd" d="M113.008 42.063c.008 15.497 1.065 23.202 4.682 34.146l2.583 7.815-2.887 4.658c-1.587 2.562-3.336 4.781-3.886 4.931s-5.584-6.389-11.187-14.532c-8.775-12.752-10.63-14.894-13.375-15.443-7.431-1.487-7.864-1.243-20.703 11.626L56 87.529v10.938l10.697 10.731 10.698 10.731-2.175 6.285c-5.84 16.876-5.65 42.857.444 60.623l2.517 7.338-12.182 18.326-12.181 18.326 1.268 5.668 1.269 5.669 12.935 6.481 12.935 6.482 4.863-1.246c4.85-1.243 4.892-1.29 15.638-17.548 7.858-11.89 11.18-16.139 12.274-15.704.825.329 6.225 2.459 12 4.734l10.5 4.137 16.5-.024c9.984-.014 18.825-.547 22.387-1.349l5.888-1.326 13.625 13.6L209.526 254h10.003l12.735-12.764L245 228.472v-11.943l-12.138-12.168-12.138-12.167 2.156-16.936c3.076-24.153 1.947-30.078-9.198-48.258l-3.371-5.5 11.344-12.139c10.507-11.243 11.34-12.425 11.275-16-.039-2.124-.376-4.621-.75-5.55s-6.215-6.891-12.981-13.25L206.899 63h-10.441l-8.958 9c-4.927 4.95-9.393 9-9.924 9-.532 0-2.116-1.077-3.521-2.394-1.405-1.316-6.539-5.161-11.407-8.545-7.278-5.057-35.891-28.796-46.898-38.909L113 28.626zm17.522 25.074c.379 1.726 1.76 5.438 3.07 8.25 3.077 6.608 3.009 8.844-.488 16.113-5.442 11.311-10.091 16.286-20.344 21.766-14.226 7.605-21.24 12.958-23.113 17.639-4.701 11.747-4.734 33.78-.077 49.96 2.177 7.563 8.461 13.251 23.681 21.437 16.812 9.043 28.062 12.707 38.889 12.667 15.295-.056 34.337-3.625 43.042-8.066 5.928-3.024 9.542-11.433 11.918-27.73 1.016-6.97 1.858-16.347 1.87-20.838.021-7.66-.234-8.65-4.111-16-6.561-12.436-13.408-21.639-23.885-32.105-5.358-5.351-10.678-11.591-11.824-13.866-2.158-4.285-5.334-7.133-15.812-14.173-3.385-2.275-9.826-7.298-14.314-11.163S130.641 64 130.357 64s-.206 1.412.173 3.137m24.97 47.772c-8.191 2.031-11.491 6.56-11.496 15.784l-.004 6.192-4.25.308c-4.229.306-4.251.328-4.557 4.557l-.308 4.25H144v50.105l5.25-.303 5.25-.302.267-24.75.268-24.75h11.08l-.308-4.25-.307-4.25-5.25-.302-5.25-.303v-4.256c0-6.367 1.772-8.139 8.138-8.139h5.299l.858-4.34c.472-2.387.711-4.468.532-4.625-.917-.799-11.724-1.272-14.327-.626"/></svg>