<svg xmlns="http://www.w3.org/2000/svg" viewBox="0 0 300 300"><path fill-rule="evenodd" d="M131.43 5.977C77.486 13.642 32.453 49.681 13.943 100c-1.72 4.675-4.303 13.45-5.739 19.5-2.351 9.9-2.613 12.951-2.613 30.5s.262 20.6 2.613 30.5c6.878 28.966 19.549 52.123 39.361 71.935s42.969 32.483 71.935 39.361c9.9 2.351 12.951 2.613 30.5 2.613s20.6-.262 30.5-2.613c28.966-6.878 52.123-19.549 71.935-39.361s32.483-42.969 39.361-71.935c2.351-9.9 2.613-12.951 2.613-30.5s-.262-20.6-2.613-30.5c-6.878-28.966-19.549-52.123-39.361-71.935C232.727 27.858 209.272 14.984 181 8.357c-8.276-1.94-13.995-2.544-27-2.852-9.075-.215-19.231-.003-22.57.472m7.07 24.599c-20.653 2.885-29.734 5.422-41.852 11.691C83.879 48.872 75.044 59.192 75.044 67.5c0 14.711 23.262 30.348 52.956 35.597 9.654 1.706 34.346 1.706 44 0 29.694-5.249 52.956-20.886 52.956-35.597 0-14.315-21.989-29.612-50.346-35.024-8.036-1.533-30.335-2.707-36.11-1.9M54.904 69.044c-31.547 37.455-38.662 90.259-17.995 133.549 6.856 14.361 13.983 24.481 25 35.498 42.732 42.732 107.967 48.852 158.684 14.886 10.135-6.787 25.597-22.249 32.384-32.384 31.728-47.376 28.561-108.282-7.881-151.549l-4.596-5.457-.647 6.499c-.843 8.456-3.9 14.771-10.719 22.136-16.39 17.703-45.07 27.766-79.134 27.766s-62.744-10.063-79.134-27.766c-6.819-7.365-9.876-13.68-10.719-22.136l-.647-6.499z"/></svg>