<svg xmlns="http://www.w3.org/2000/svg" viewBox="0 0 300 300"><path fill-rule="evenodd" d="M136.49 70.953c-23.147 4.969-38.172 19.81-46.15 45.584l-2.774 8.963-.34 52.25-.34 52.25h126.228l-.34-52.25-.34-52.25-2.774-8.963c-7.028-22.706-19.461-36.852-38.051-43.295-5.649-1.957-9.573-2.534-19.109-2.806-6.6-.189-13.805.044-16.01.517m2.256 20.071c-11.168 2.816-19.752 10.086-25.219 21.357-5.915 12.196-6.527 17.827-6.527 60.077V210h86.14l-.404-40.75c-.443-44.809-.66-46.631-6.989-58.551-4.246-7.997-9.753-13.339-17.476-16.953-5.626-2.633-7.898-3.106-16.159-3.366-5.287-.167-11.301.123-13.366.644M120 135v3h60v-6h-60zm0 15v3h60v-6h-60zm0 15v3h60v-6h-60zm0 15v3h60v-6h-60z"/></svg>