<svg xmlns="http://www.w3.org/2000/svg" viewBox="0 0 300 300"><path fill-rule="evenodd" d="M194.994 130.874c-5.252 1.723-8.886 4.211-13.267 9.084L177.194 145h-44.525c-39.145 0-44.716.19-46.098 1.571C85.267 147.876 85 151.009 85 165c0 17.874.531 20 5 20 4.287 0 5-2.364 5-16.571V155h20v13.429c0 14.207.713 16.571 5 16.571s5-2.364 5-16.571V155h49.72l.556 5.387c.671 6.498 2.735 10.839 7.584 15.948 5.979 6.299 10.403 8.13 19.64 8.13s13.661-1.831 19.64-8.13c5.966-6.286 7.332-9.796 7.332-18.835s-1.366-12.549-7.332-18.835c-5.227-5.506-10.481-7.907-18.14-8.289-3.575-.178-7.628.046-9.006.498m.427 11.022c-15.503 7.042-12.461 29.54 4.425 32.73 7.726 1.46 16.799-4.372 19.183-12.329 2.387-7.968-1.286-16.151-8.999-20.047-5.382-2.719-9.197-2.811-14.609-.354"/></svg>