<svg xmlns="http://www.w3.org/2000/svg" viewBox="0 0 300 300"><path fill-rule="evenodd" d="M27 75v45h36V93h174v27h36V30h-36v27H63V30H27zm140 105.54v18.541l-2.739-2.54c-4.31-3.996-9.228-5.912-16.283-6.343-15.126-.923-26.334 6.646-32.07 21.657-2.743 7.179-3.722 22.915-1.927 30.989 3.739 16.813 15.261 27.868 30.157 28.934 8.639.618 14.62-1.023 19.758-5.421l3.98-3.407.312 3.775.312 3.775h13l.259-54.25.258-54.25H167zm-29.16 24.347c-8.12 5.149-12.143 18.707-9.88 33.294 2.235 14.401 9.134 21.819 20.295 21.819 7.331 0 13.546-3.923 16.851-10.637 1.928-3.915 2.463-6.811 2.746-14.863.194-5.5-.168-12.329-.805-15.176-3.281-14.675-17.641-21.773-29.207-14.437"/></svg>