<svg xmlns="http://www.w3.org/2000/svg" viewBox="0 0 300 300"><path fill-rule="evenodd" d="M27 75v45h36V93h174v27h36V30h-36v27H63V30H27zm90.407 117.381c-.31.81-.409 14.893-.219 31.296.302 25.965.577 30.34 2.13 33.823 4.089 9.172 13.29 14.5 25.041 14.5 8.234 0 14.481-2.227 20.086-7.16l4.555-4.01v10.265l6.25-.297 6.25-.298v-79h-14L167 219c-.426 23.453-.752 27.961-2.214 30.631-6.439 11.761-23.838 13.843-30.522 3.652-1.553-2.368-1.824-6.225-2.264-32.236l-.5-29.547-6.764-.296c-5.231-.229-6.891.038-7.329 1.177"/></svg>