<svg xmlns="http://www.w3.org/2000/svg" viewBox="0 0 300 300"><path fill-rule="evenodd" d="M145.703 18.792 142 22.584v45.01l4 3.906 4 3.906 4-3.906 4-3.906V22.406l-3.792-3.703c-2.086-2.037-4.02-3.703-4.297-3.703s-2.171 1.706-4.208 3.792M64.324 58.726c-3.942.484-5.031 1.768-5.475 6.454-.332 3.502.198 4.234 11.042 15.239C81.21 91.906 81.306 91.975 85.122 91.364c4.51-.721 5.396-1.633 6.262-6.448.631-3.511.405-3.821-10.916-15-6.359-6.279-11.878-11.453-12.265-11.498-.386-.044-2.132.094-3.879.308m155.377 11.019c-11.593 11.476-11.672 11.586-11.064 15.388.72 4.498 1.634 5.385 6.447 6.251 3.512.631 3.818.408 15-10.94 10.849-11.009 11.399-11.768 11.083-15.264-.408-4.507-1.629-5.774-6.228-6.461-3.432-.513-3.985-.112-15.238 11.026m-83.785 21.717C107.338 98.71 88.842 123.638 90.255 153c1.213 25.216 17.177 46.323 40.917 54.1 10.486 3.435 27.17 3.435 37.656 0 17.889-5.861 32.411-20.383 38.272-38.272 3.435-10.486 3.435-27.17 0-37.656-5.764-17.595-19.594-31.672-37.219-37.882-9.104-3.208-25.125-4.07-33.965-1.828M141 106.098c-22.492 4.393-38.926 28.029-35.185 50.606 4.03 24.32 27.223 41.402 50.889 37.481 24.32-4.03 41.402-27.223 37.481-50.889-4.187-25.264-28.22-42.073-53.185-37.198M18.5 146l-3.906 4 3.906 4 3.906 4h45.188l3.906-4 3.906-4-3.906-4-3.906-4H22.406zm210 0-3.906 4 3.906 4 3.906 4h45.188l3.906-4 3.906-4-3.906-4-3.906-4h-45.188zM69.378 219.863c-10.716 11.213-11.104 11.772-10.644 15.352.576 4.492 1.652 5.482 6.446 5.936 3.502.332 4.234-.198 15.239-11.042 11.487-11.319 11.556-11.415 10.945-15.231-.744-4.653-1.695-5.506-6.864-6.152-3.99-.499-4.029-.471-15.122 11.137M214 208.732c-3.647.67-4.678 1.852-5.364 6.146-.611 3.816-.542 3.912 10.945 15.231 10.985 10.824 11.743 11.374 15.239 11.058 2.024-.183 4.205-.858 4.847-1.5s1.317-2.823 1.5-4.847c.316-3.496-.234-4.254-11.068-15.25-6.271-6.363-11.896-11.509-12.5-11.434-.605.075-2.224.343-3.599.596m-68.297 20.06L142 232.584v45.01l4 3.906 4 3.906 4-3.906 4-3.906v-45.188l-3.792-3.703c-2.086-2.037-4.02-3.703-4.297-3.703s-2.171 1.706-4.208 3.792"/></svg>