<svg xmlns="http://www.w3.org/2000/svg" viewBox="0 0 300 300"><path fill-rule="evenodd" d="M0 150.003v150.003l150.25-.253 150.25-.253.253-149.75L301.007 0H0zm.487.497c0 82.5.118 116.102.263 74.672.144-41.431.144-108.931 0-150C.605 34.102.487 68 .487 150.5M20 150v130h260V20H20zM142 41.5c0 3.025-.113 5.506-.25 5.513s-4.379.865-9.427 1.907C105.638 54.427 91 72.377 91 99.592c0 16.167 4.588 27.474 14.792 36.456 5.354 4.713 19.189 11.864 29.17 15.079l7.038 2.267v70.856l-3.226-.645c-13.293-2.659-23.635-15.148-26.997-32.605-.582-3.025-1.397-5.879-1.811-6.343s-3.275-.351-6.359.25L92.5 187.071c-5.48 1.067-5.5 1.084-5.485 4.75.045 11.322 6.986 27.063 15.99 36.265 7.028 7.182 15.516 11.474 28.401 14.362l10.094 2.262.283 11.145.283 11.145H156v-22.549l7.75-1.212c27.044-4.228 46.181-27.175 46.235-55.44.052-27.157-13.952-44.061-43.55-52.57l-9.935-2.856-.264-32.186c-.208-25.414.002-32.185 1-32.177 3.259.025 11.738 5.153 15.401 9.315C176.344 81.536 181 92.21 181 96.496c0 1.039.785 1.313 2.75.962 1.512-.271 6.703-1.1 11.534-1.842 4.83-.742 9.083-1.649 9.449-2.016 1.172-1.172-1.521-11.369-4.844-18.344C193.554 61.963 179.8 51.579 165 48.916c-3.575-.643-7.062-1.323-7.75-1.511-.808-.221-1.25-2.298-1.25-5.874V36h-14zm-8.676 28.138c-5.862 2.077-12.752 8.494-15.793 14.708-3.629 7.418-4.23 14.168-1.997 22.419 1.516 5.601 2.668 7.567 6.923 11.823 3.454 3.453 6.967 5.801 10.862 7.258C142.784 129.388 142 131.902 142 98V68l-2.25.079c-1.238.043-4.129.745-6.426 1.559M156 190.558v33.692l3.226-.645c8.736-1.747 18.659-9.605 22.718-17.989 7.076-14.618 3.995-33.162-6.763-40.693-3.359-2.352-11.29-5.828-16.931-7.422l-2.25-.636z"/></svg>