<svg xmlns="http://www.w3.org/2000/svg" viewBox="0 0 300 300"><path fill-rule="evenodd" d="M128.799 53.102C88.701 55.664 51.839 67.034 26.843 84.55 22.564 87.547 18.026 90 16.757 90c-1.536 0-4.722 2.432-9.532 7.274L0 104.547v91.003l7.274 7.225L14.547 210H42.55l7.45-7.5 7.45-7.5h185.1l7.45 7.5 7.45 7.5h28.097l7.726-7.772 7.727-7.772v-45.787c0-25.183-.371-45.557-.825-45.277s-3.93-2.618-7.724-6.441c-4.567-4.603-7.677-6.951-9.206-6.951-1.27 0-5.809-2.453-10.088-5.45C247.37 66.48 211.766 55.753 168.5 53.018c-17.611-1.113-21.09-1.105-39.701.084M116 69.491c-25.402 3.082-44.898 8.497-63.809 17.723l-8.309 4.054 2.746 2.866L49.374 97h201.252l2.746-2.866 2.746-2.866-8.309-4.054c-19.341-9.435-38.446-14.669-64.799-17.752-15.286-1.788-52.166-1.772-67.01.029M.461 150c0 25.575.13 36.038.288 23.25s.158-33.712 0-46.5S.461 124.425.461 150M15 154v41h27v-82H15zm243 0v41h27v-82h-27zm-201-4v30h186v-60H57z"/></svg>