<svg xmlns="http://www.w3.org/2000/svg" viewBox="0 0 300 300"><path fill-rule="evenodd" d="M0 150.003v150.003l150.25-.253 150.25-.253.253-149.75L301.007 0H0zm.487.497c0 82.5.118 116.102.263 74.672.144-41.431.144-108.931 0-150C.605 34.102.487 68 .487 150.5m91.764-72.751L150 135.498l57.749-57.749L265.498 20H34.502zM20 150v115.498l57.749-57.749L135.498 150 77.749 92.251 20 34.502zm201.999-57.499-57.495 57.501 57.748 57.748L280 265.498V150.249C280 86.862 279.886 35 279.747 35c-.14 0-26.126 25.875-57.748 57.501M92 222.5 34.507 280h230.986L208 222.5c-31.621-31.625-57.721-57.5-58-57.5s-26.379 25.875-58 57.5"/></svg>