<svg xmlns="http://www.w3.org/2000/svg" viewBox="0 0 300 300"><path fill-rule="evenodd" d="M131.43 5.977C77.486 13.642 32.453 49.681 13.943 100c-1.72 4.675-4.303 13.45-5.739 19.5-2.351 9.9-2.613 12.951-2.613 30.5s.262 20.6 2.613 30.5c6.878 28.966 19.549 52.123 39.361 71.935s42.969 32.483 71.935 39.361c9.9 2.351 12.951 2.613 30.5 2.613s20.6-.262 30.5-2.613c28.966-6.878 52.123-19.549 71.935-39.361s32.483-42.969 39.361-71.935c2.351-9.9 2.613-12.951 2.613-30.5s-.262-20.6-2.613-30.5c-6.878-28.966-19.549-52.123-39.361-71.935C232.727 27.858 209.272 14.984 181 8.357c-8.276-1.94-13.995-2.544-27-2.852-9.075-.215-19.231-.003-22.57.472m2.07 20.168c-20.743 2.644-45.929 13.419-61.652 26.375l-2.652 2.186 40.402 40.392L150 135.491l40.402-40.393 40.402-40.392-2.652-2.186c-24.867-20.491-61.257-30.631-94.652-26.375M53.496 70.364c-17.479 24.013-25.174 42.865-27.709 67.886-2.213 21.846 1.739 44.69 11.139 64.38 4.557 9.545 10.662 19.536 15.594 25.522l2.186 2.652L95.1 190.4l40.394-40.403-40.501-40.501C63.722 78.225 54.266 69.307 53.496 70.364m151.406 39.234L164.509 150l40.393 40.402 40.392 40.402 2.186-2.652c4.932-5.986 11.037-15.977 15.594-25.522 15.621-32.722 15.621-72.538 0-105.26-4.557-9.545-10.662-19.536-15.594-25.522l-2.186-2.652zm-95.657 95.657c-31.046 31.053-39.933 40.482-38.879 41.25 24 17.473 42.865 25.173 67.884 27.708 21.846 2.213 44.69-1.739 64.38-11.139 9.545-4.557 19.536-10.662 25.522-15.594l2.652-2.186-40.157-40.147C168.561 183.066 150.266 165 149.991 165s-18.611 18.115-40.746 40.255"/></svg>