<svg xmlns="http://www.w3.org/2000/svg" viewBox="0 0 300 300"><path fill-rule="evenodd" d="M0 150.003v150.003l150.25-.253 150.25-.253.253-149.75L301.007 0H0zm.487.497c0 82.5.118 116.102.263 74.672.144-41.431.144-108.931 0-150C.605 34.102.487 68 .487 150.5M54.5 40l19.981 20h151.038L245.5 40l19.981-20H34.519zM20 150v115.481L40 245.5l20-19.981V74.481L40 54.5 20 34.519zm239.741-95.241L240 74.518v151.001l20 19.981 20 19.981v-115.24C280 86.858 279.883 35 279.741 35s-9.143 8.892-20 19.759M54.5 260l-19.981 20h230.962L245.5 260l-19.981-20H74.481z"/></svg>