<svg xmlns="http://www.w3.org/2000/svg" viewBox="0 0 300 300"><path fill-rule="evenodd" d="M131.43 5.977C77.486 13.642 32.453 49.681 13.943 100c-1.72 4.675-4.303 13.45-5.739 19.5-2.351 9.9-2.613 12.951-2.613 30.5s.262 20.6 2.613 30.5c6.878 28.966 19.549 52.123 39.361 71.935s42.969 32.483 71.935 39.361c9.9 2.351 12.951 2.613 30.5 2.613s20.6-.262 30.5-2.613c28.966-6.878 52.123-19.549 71.935-39.361s32.483-42.969 39.361-71.935c2.351-9.9 2.613-12.951 2.613-30.5s-.262-20.6-2.613-30.5c-6.878-28.966-19.549-52.123-39.361-71.935C232.727 27.858 209.272 14.984 181 8.357c-8.276-1.94-13.995-2.544-27-2.852-9.075-.215-19.231-.003-22.57.472m1.09 20.138C112.017 29.1 89.167 38.773 73.823 50.961l-4.677 3.715 12.271 12.241 12.271 12.241 6.315-4.082C115.668 64.952 132.055 60.015 150 60.015s34.332 4.937 49.997 15.061l6.315 4.082 12.271-12.241 12.271-12.241-4.677-3.715C210.464 38.48 187.981 29.089 166.5 26.035c-8.31-1.182-25.597-1.141-33.98.08M49.899 75.292C27.002 106.183 19.524 144.3 29.073 181.446c3.958 15.4 12.573 33.004 21.888 44.731l3.715 4.677 12.241-12.271 12.241-12.271-4.082-6.315c-20.209-31.268-20.207-68.729.004-100l4.086-6.321L66.833 81.38 54.5 69.084zm183.184 6.125-12.241 12.271 4.082 6.315c20.207 31.265 20.207 68.729 0 99.994l-4.082 6.315 12.241 12.271 12.241 12.271 3.715-4.677c12.481-15.713 21.872-38.196 24.926-59.677 4.487-31.557-5.31-67.982-24.926-92.677l-3.715-4.677zM81.283 233.25 69.095 245.5l6.203 4.601c30.854 22.89 69.003 30.375 106.148 20.826 15.4-3.958 33.004-12.573 44.731-21.888l4.677-3.715-12.271-12.241-12.271-12.241-6.315 4.082c-31.211 20.172-68.737 20.202-99.872.079-3.406-2.202-6.297-4.003-6.424-4.003s-5.715 5.512-12.418 12.25"/></svg>