<svg xmlns="http://www.w3.org/2000/svg" viewBox="0 0 300 300"><path fill-rule="evenodd" d="M120 2.318c0 6.312 3.2 13.042 8.92 18.762C135.233 27.393 141.394 30 150 30s14.767-2.607 21.08-8.92C176.8 15.36 180 8.63 180 2.318V0h-60zm22.195 35.432.305 4.75h15l.305-4.75.305-4.75h-16.22zm.511 13.877c-.388.388-.706 2.656-.706 5.04V61h16.11l-.305-4.75-.305-4.75-7.044-.29c-3.874-.159-7.361.029-7.75.417m-.291 19.734c-.306.797-.412 2.954-.235 4.794l.32 3.345h15v-9l-7.264-.294c-5.62-.228-7.391.034-7.821 1.155m-.22 22.389.305 4.75h15l.305-4.75.305-4.75h-16.22zm.511 13.877c-.388.388-.706 2.656-.706 5.04V117h16.11l-.305-4.75-.305-4.75-7.044-.29c-3.874-.159-7.361.029-7.75.417m-3.112 14.018c-7.075 2.172-15.856 11.13-18.005 18.368-2.017 6.791-2.017 13.183 0 19.974 2.232 7.516 10.908 16.192 18.424 18.424 6.791 2.017 13.183 2.017 19.974 0 7.516-2.232 16.192-10.908 18.424-18.424 2.017-6.791 2.017-13.183 0-19.974-2.232-7.516-10.908-16.192-18.424-18.424-6.576-1.953-13.913-1.933-20.393.056m150 0c-7.075 2.172-15.856 11.13-18.005 18.368-.874 2.942-1.589 7.437-1.589 9.987 0 8.606 2.607 14.767 8.92 21.08 5.72 5.72 12.45 8.92 18.762 8.92H300v-60l-2.75.07c-1.512.038-4.958.747-7.656 1.575M183 150v8.11l4.75-.305 4.75-.305v-15l-4.75-.305-4.75-.305zm18.417-6.645c-.286.746-.384 4.233-.218 7.75l.301 6.395 4.75.305 4.75.305V142h-4.531c-2.891 0-4.72.491-5.052 1.355m19.022-.058c-.298.778-.406 4.291-.24 7.808l.301 6.395h9v-15l-4.259-.308c-2.968-.215-4.424.121-4.802 1.105M239 150v8.11l4.75-.305 4.75-.305v-15l-4.75-.305-4.75-.305zm18.417-6.645c-.286.746-.384 4.233-.218 7.75l.301 6.395 4.75.305 4.75.305V142h-4.531c-2.891 0-4.72.491-5.052 1.355"/></svg>