<svg xmlns="http://www.w3.org/2000/svg" viewBox="0 0 300 300"><path fill-rule="evenodd" d="M0 150v30h2.318c6.312 0 13.042-3.2 18.762-8.92C27.393 164.767 30 158.606 30 150s-2.607-14.767-8.92-21.08C15.36 123.2 8.63 120 2.318 120H0zm139.594-28.355c-6.019 1.848-15.66 10.996-17.516 16.62-1.05 3.18-1.667 3.735-4.156 3.735H115v16h2.922c2.489 0 3.106.555 4.156 3.735 1.946 5.899 11.474 14.757 17.935 16.676 6.791 2.017 13.183 2.017 19.974 0 6.461-1.919 15.989-10.777 17.935-16.676 1.05-3.18 1.667-3.735 4.156-3.735H185v-16h-2.922c-2.489 0-3.106-.555-4.156-3.735-1.946-5.899-11.474-14.757-17.935-16.676-6.576-1.953-13.913-1.933-20.393.056m150 0c-7.075 2.172-15.856 11.13-18.005 18.368-.874 2.942-1.589 7.437-1.589 9.987 0 8.606 2.607 14.767 8.92 21.08 5.72 5.72 12.45 8.92 18.762 8.92H300v-60l-2.75.07c-1.512.038-4.958.747-7.656 1.575M35 150v8h10v-16H35zm20 0v8h10v-16H55zm20 0v8h10v-16H75zm20 0v8h10v-16H95zm100 0v8h10v-16h-10zm20 0v8h10v-16h-10zm20 0v8h10v-16h-10zm20 0v8h10v-16h-10z"/></svg>