<svg xmlns="http://www.w3.org/2000/svg" viewBox="0 0 300 300"><path fill-rule="evenodd" d="M120 2.318c0 10.442 9.84 23.126 20.298 26.166 3.828 1.113 5.803 2.258 6.233 3.614.395 1.245 1.253 1.813 2.3 1.522 11.15-3.096 13.301-3.822 12.802-4.32-.319-.32 1.337-1.798 3.681-3.284C173.665 20.72 180 10.497 180 2.318V0h-60zm37 39.116c-7.013 2.457-7.113 2.658-4.462 9.002 1.619 3.875 1.042 3.891 10.682-.292l4.72-2.047-1.686-4.549c-.927-2.501-1.926-4.513-2.22-4.47s-3.459 1.103-7.034 2.356m7.25 18.671c-2.887 1.683-5.25 3.266-5.25 3.517 0 1.369 4.187 8.378 5.005 8.378.754 0 9.914-5.131 11.901-6.666 1.005-.776-3.366-8.332-4.808-8.312-.879.012-3.961 1.399-6.848 3.083m10.481 17c-5.474 3.799-5.694 4.11-4.295 6.108 1.328 1.895 1.269 2.393-.6 5.018-4.756 6.679-6.048 17.325-3.247 26.756 2.232 7.516 10.908 16.192 18.424 18.424 9.369 2.783 20.926 1.348 26.975-3.348 2.464-1.912 2.522-1.911 5.803.117 1.823 1.126 3.45 1.884 3.615 1.684s1.978-3.016 4.026-6.256c3.875-6.129 3.88-6.061-.613-8.64-1.366-.784-1.506-1.572-.75-4.21 1.386-4.83 1.13-11.725-.658-17.745-2.232-7.516-10.908-16.192-18.424-18.424-6.02-1.788-12.915-2.044-17.745-.658-2.747.788-3.404.634-4.279-1-.568-1.062-1.355-1.908-1.748-1.88s-3.311 1.852-6.484 4.054m115.178 44.449c-5.079 1.564-12.672 7.709-15.819 12.801-1.121 1.813-2.757 6.397-3.636 10.185-1.545 6.663-1.525 7.118.614 13.894 1.835 5.814 3.178 7.972 7.902 12.696 5.669 5.669 12.422 8.87 18.712 8.87H300v-60l-2.75.07c-1.512.038-4.816.706-7.341 1.484m-56.659 9.387c-1.787 3.255-3.25 6.165-3.25 6.468 0 .641 7.525 4.591 8.746 4.591.453 0 2.264-2.919 4.024-6.488l3.199-6.487-3.945-2.013c-2.169-1.106-4.3-2.007-4.734-2-.435.006-2.253 2.675-4.04 5.929m19.844 4.309c-.471 1.238-1.585 3.992-2.475 6.122-2.193 5.245-2.122 5.52 1.849 7.179 5.587 2.335 6.195 1.971 8.553-5.115 1.202-3.61 2.026-6.713 1.832-6.895-.44-.412-7.95-3.541-8.5-3.541-.221 0-.788 1.012-1.259 2.25"/></svg>