<svg xmlns="http://www.w3.org/2000/svg" viewBox="0 0 300 300"><path fill-rule="evenodd" d="M0 150v30h2.318c6.312 0 13.042-3.2 18.762-8.92C27.393 164.767 30 158.606 30 150s-2.607-14.767-8.92-21.08C15.36 123.2 8.63 120 2.318 120H0zm139.594-28.355c-7.075 2.172-15.856 11.13-18.005 18.368-2.017 6.791-2.017 13.183 0 19.974 2.232 7.516 10.908 16.192 18.424 18.424 6.791 2.017 13.183 2.017 19.974 0 7.516-2.232 16.192-10.908 18.424-18.424 2.017-6.791 2.017-13.183 0-19.974-2.232-7.516-10.908-16.192-18.424-18.424-6.576-1.953-13.913-1.933-20.393.056M33 151v8.11l4.75-.305 4.75-.305v-15l-4.75-.305-4.75-.305zm18.417-6.645c-.286.746-.384 4.233-.218 7.75l.301 6.395 4.75.305 4.75.305V143h-4.531c-2.891 0-4.72.491-5.052 1.355m19.022-.058c-.298.778-.406 4.291-.24 7.808l.301 6.395h9v-15l-4.259-.308c-2.968-.215-4.424.121-4.802 1.105M89 151v8.11l4.75-.305 4.75-.305v-15l-4.75-.305-4.75-.305zm18.417-6.645c-.286.746-.384 4.233-.218 7.75l.301 6.395 4.75.305 4.75.305V143h-4.531c-2.891 0-4.72.491-5.052 1.355"/></svg>