<svg xmlns="http://www.w3.org/2000/svg" viewBox="0 0 300 300"><path fill-rule="evenodd" d="M0 7.5V15h7.5c7.333 0 7.5.056 7.5 2.5s.167 2.5 7.5 2.5H30V0H0zM45 10v10h15V0H45zm30 0v10h15V0H75zm30 0v10h15V0h-15zm30 0v10h15V0h-15zm30 0v10h15V0h-15zm30 0v10h15V0h-15zm30 0v10h15V0h-15zm30 0v10h15V0h-15zm30-2.5c0 7.333-.056 7.5-2.5 7.5s-2.5.167-2.5 7.5V30h20v7.167c0 3.941.222 6.945.493 6.674.271-.272.199-10.247-.159-22.167L299.681 0H285zM1 37.5V45h19V30H1zm279 15V60h20v7.167c0 3.941.277 6.89.615 6.551s.288-6.938-.112-14.666L299.775 45H280zM1 67.5V75h19V60H1zm279 15V90h20v7.167c0 3.941.277 6.89.615 6.551s.288-6.938-.112-14.666L299.775 75H280zM1 97.5v7.5h19V90H1zm279 15v7.5h20v7.167c0 3.941.277 6.89.615 6.551s.288-6.938-.112-14.666L299.775 105H280zm-279 15v7.5h19v-15H1zm279 15v7.5h20v7.167c0 3.941.277 6.89.615 6.551s.288-6.938-.112-14.666L299.775 135H280zm-279 15v7.5h19v-15H1zm279 15v7.5h20v7.167c0 3.941.277 6.89.615 6.551s.288-6.938-.112-14.666L299.775 165H280zm-279 15v7.5h19v-15H1zm279 15v7.5h20v7.167c0 3.941.277 6.89.615 6.551s.288-6.938-.112-14.666L299.775 195H280zm-279 15v7.5h19v-15H1zm279 15v7.5h20v7.167c0 3.941.277 6.89.615 6.551s.288-6.938-.112-14.666L299.775 225H280zm-279 15v7.5h19v-15H1zm279 15v7.5h20v15h-7.5c-7.333 0-7.5-.056-7.5-2.5s-.167-2.5-7.5-2.5H270v20.052l15.25-.276 15.25-.276.327-8c.181-4.4.021-14.413-.354-22.25l-.681-14.25H280zM1 285v15h14v-7.5c0-7.333.056-7.5 2.5-7.5s2.5-.167 2.5-7.5V270H1zm29 5v10h15v-20H30zm30 0v10h15v-20H60zm30 0v10h15v-20H90zm30 0v10h15v-20h-15zm30 0v10h15v-20h-15zm30 0v10h15v-20h-15zm30 0v10h15v-20h-15zm30 0v10h15v-20h-15z"/></svg>