<svg xmlns="http://www.w3.org/2000/svg" viewBox="0 0 300 300"><path fill-rule="evenodd" d="M140 2.617c-36.885 3.165-68.439 17.697-94.062 43.321C28.365 63.51 17.469 81.097 9.981 103.972c-6.678 20.398-9.527 46.47-5.717 52.301 4.033 6.172 12.231 7.955 17.765 3.863 2.857-2.112 3.438-2.136 50.853-2.136h47.963l1.144 3.465c1.311 3.975 8.533 12.406 12.397 14.474l2.614 1.399.002 54.581c.001 60.231-.143 58.782 6.336 63.51 5.706 4.163 31.555 1.509 52.69-5.41 22.875-7.488 40.462-18.384 58.034-35.957 17.573-17.572 28.469-35.159 35.957-58.034 5.309-16.218 7.269-28.626 7.269-46.028 0-40.228-14.643-75.48-43.226-104.062C226.896 18.771 193.587 4.218 155 2.656c-5.775-.234-12.525-.252-15-.039m-11.765 26.88c-15.709 2.848-32.536 9.623-45.952 18.502l-6.217 4.114 30.217 35.279c29.46 34.394 30.286 35.255 32.967 34.345l2.75-.933V28l-3.25.09c-1.787.05-6.519.683-10.515 1.407M158 74.3v46.533l2.714.905c2.627.876 3.668-.206 32.876-34.167 34.58-40.207 32.269-34.808 18.41-43.015-14.351-8.499-31.775-14.426-47.25-16.071l-6.75-.718zm-98.641-6.616c-18.174 21.339-28.32 43.542-30.874 67.566l-.718 6.75 46.367-.001 46.366-.001 2.193-4.733c1.812-3.912 1.969-4.997.907-6.249-13.547-15.969-56.333-65.997-57.585-67.332-1.63-1.739-1.913-1.569-6.656 4M207 95.123c-15.675 18.301-29.253 34.224-30.173 35.385-1.575 1.988-1.546 2.384.5 6.801l2.173 4.689 46.366.001 46.367.001-.718-6.75c-2.586-24.317-13.958-48.755-32.143-69.076l-3.872-4.326zm-28.738 65.591c-.876 2.627.206 3.668 34.167 32.876 40.207 34.58 34.808 32.269 43.015 18.41 8.499-14.351 14.426-31.775 16.071-47.25l.718-6.75h-93.066zM92 180.54v18.541l-2.739-2.54c-4.31-3.996-9.228-5.912-16.283-6.343-15.126-.923-26.334 6.646-32.07 21.657-2.743 7.179-3.722 22.915-1.927 30.989 3.739 16.813 15.261 27.868 30.157 28.934 8.639.618 14.62-1.023 19.758-5.421l3.98-3.407.312 3.775.312 3.775h13l.259-54.25.258-54.25H92zm72.75-4.146c-1.623 1.23-1.75 4.74-1.75 48.403v47.077l3.75-.535c24.661-3.517 47.36-14.334 67.08-31.967l4.329-3.872-35.044-29.988c-19.274-16.494-35.397-30.091-35.829-30.216-.432-.126-1.573.369-2.536 1.098M62.84 204.887c-8.12 5.149-12.143 18.707-9.88 33.294C55.195 252.582 62.094 260 73.255 260c7.331 0 13.546-3.923 16.851-10.637 1.928-3.915 2.463-6.811 2.746-14.863.194-5.5-.168-12.329-.805-15.176-3.281-14.675-17.641-21.773-29.207-14.437"/></svg>