<svg xmlns="http://www.w3.org/2000/svg" viewBox="0 0 300 300"><path fill-rule="evenodd" d="M0 37.01v7.996l150.25-.253L300.5 44.5l.286-8 .287-8-150.537.256L0 29.013zM.349 37c0 4.675.173 6.587.383 4.25.211-2.338.211-6.163 0-8.5-.21-2.338-.383-.425-.383 4.25M0 112.01v7.996l150.25-.253 150.25-.253.286-8 .287-8-150.537.256L0 104.013zm.349-.01c0 4.675.173 6.587.383 4.25.211-2.338.211-6.163 0-8.5-.21-2.338-.383-.425-.383 4.25M0 187.01v7.996l150.25-.253 150.25-.253.286-8 .287-8-150.537.256L0 179.013zm.349-.01c0 4.675.173 6.588.383 4.25s.211-6.162 0-8.5c-.21-2.338-.383-.425-.383 4.25M0 262.01v7.996l150.25-.253 150.25-.253.286-8 .287-8-150.537.256L0 254.013zm.349-.01c0 4.675.173 6.587.383 4.25s.211-6.163 0-8.5c-.21-2.338-.383-.425-.383 4.25"/></svg>