<svg xmlns="http://www.w3.org/2000/svg" viewBox="0 0 300 300"><path fill-rule="evenodd" d="M5 150v145h20v-20h115v20h155V5H5zm83.5-72c29.146 29.15 53.332 53 53.746 53s.754-23.85.754-53V25H35.507zm68.5 0c0 29.15.339 53 .754 53 .414 0 24.6-23.85 53.746-53l52.993-53H157zM25 89.254V143h53c29.15 0 53-.339 53-.754 0-.414-23.85-24.6-53-53.746L25 35.507zm196.746-.5c-29.01 29.014-52.746 53.089-52.746 53.5 0 .41 23.85.746 53 .746h53V89.5c0-29.425-.114-53.5-.254-53.5-.139 0-23.989 23.739-53 52.754M25 166v9h75v-13h14v13h26v-18H25zm144-8.246c0 .414 23.85 24.6 53 53.746l53 52.993V157h-53c-29.15 0-53 .339-53 .754M160 223v52h104.493L212.5 223c-28.596-28.6-52.107-52-52.246-52S160 194.4 160 223M25 195v10h25.587l6.096-5.929c6.778-6.591 12.738-9.075 21.749-9.065 7.115.007 11.805 1.528 17.044 5.528l4.524 3.453V185H25zm89 0v10h26v-20h-26zm-41.5 8.464c-2.77 1.268-2.193 1.374 7.5 1.374s10.27-.106 7.5-1.374c-1.65-.756-5.025-1.374-7.5-1.374s-5.85.618-7.5 1.374M25 225v10h19.724l.666-6.75c.366-3.713.928-8.213 1.249-10l.584-3.25H25zm36.053-6.25c-.573 2.063-1.044 6.563-1.047 10L60 235h41v-4.924c0-2.708-.527-7.208-1.172-10L98.657 215H62.094zM114 225v10h26v-20h-26zm-89 30v10h33.77l-3.339-3.645c-1.837-2.005-4.585-6.505-6.108-10L46.555 245H25zm37.532-7.75c1.095 3.697 5.816 8.975 9.945 11.118 4.369 2.267 11.856 2.568 15.618.628C93.084 256.423 99 249.399 99 246.05c0-.696-6.27-1.05-18.567-1.05H61.865zM114 255v10h26v-20h-26zm-14.5 9c-.34.55-.141 1 .441 1s1.059-.45 1.059-1-.198-1-.441-1-.719.45-1.059 1"/></svg>