<svg xmlns="http://www.w3.org/2000/svg" viewBox="0 0 300 300"><path fill-rule="evenodd" d="M5 150v145h20v-20h115v20h155V5H5zm83.5-72c29.146 29.15 53.332 53 53.746 53s.754-23.85.754-53V25H35.507zm68.5 0c0 29.15.339 53 .754 53 .414 0 24.6-23.85 53.746-53l52.993-53H157zM25 89.254V143h53c29.15 0 53-.339 53-.754 0-.414-23.85-24.6-53-53.746L25 35.507zm196.746-.5c-29.01 29.014-52.746 53.089-52.746 53.5 0 .41 23.85.746 53 .746h53V89.5c0-29.425-.114-53.5-.254-53.5-.139 0-23.989 23.739-53 52.754M25 166v9h115v-18H25zm144-8.246c0 .414 23.85 24.6 53 53.746l53 52.993V157h-53c-29.15 0-53 .339-53 .754M160 223v52h104.493L212.5 223c-28.596-28.6-52.107-52-52.246-52S160 194.4 160 223M25 195v10h25v-13h14v13h36v-13h14v13h26v-20H25zm0 30v10h25v-20H25zm39 0v10h36v-20H64zm50 0v10h26v-20h-26zm-89 30v10h30.904l-2.471-4.763c-1.359-2.62-2.75-7.12-3.091-10L49.721 245H25zm39.022-8.75c.048 2.758 3.963 9.694 6.356 11.262 8.595 5.632 23.196.915 27.126-8.762l1.523-3.75H81.513c-13.355 0-17.508.297-17.491 1.25M114 255v10h26v-20h-26zm-15.268 8c-1.63 1.904-1.617 2 .278 2 1.323 0 1.99-.67 1.99-2 0-1.1-.125-2-.278-2s-1.048.9-1.99 2"/></svg>