<svg xmlns="http://www.w3.org/2000/svg" viewBox="0 0 600 600"><path fill-rule="evenodd" d="M0 300v300h30v-55h255v55.006l157.75-.253 157.75-.253.252-299.75L601.003 0H0zm.493.5c0 165 .116 232.351.257 149.669s.141-217.682 0-300S.493 135.5.493 300.5M166 155.5C235.023 224.525 291.835 281 292.249 281c.413 0 .751-56.475.751-125.5V30H40.503zm141 0c0 69.025.338 125.5.751 125.5.414 0 57.226-56.475 126.249-125.5L559.497 30H307zM30 166.751V293h125.5c69.025 0 125.5-.338 125.5-.751 0-.414-56.475-57.226-125.5-126.249L30 40.503zm414.249-.5C375.362 235.14 319 291.84 319 292.251s56.475.749 125.5.749H570V167c0-69.3-.113-126-.251-126-.139 0-56.614 56.363-125.5 125.251M30 331v24h255v-48H30zm289-23.249c0 .414 56.475 57.226 125.5 126.249L570 559.497V307H444.5c-69.025 0-125.5.338-125.5.751M315 448v122h244.497L437.5 448c-67.098-67.1-122.11-122-122.248-122S315 380.9 315 448M30 390v25h255v-50H30zm0 60v25h255v-50H30zm0 60v25h255v-50H30z"/></svg>