<svg xmlns="http://www.w3.org/2000/svg" viewBox="0 0 600 600"><path fill-rule="evenodd" d="M278 .595c-1.925.226-8 .885-13.5 1.464C211.983 7.59 155.34 31.349 112 66.027 98.545 76.793 76.793 98.545 66.027 112 25.975 162.057 2.871 223.771.31 287.54c-.681 16.978.192 20.542 6.063 24.73 4.378 3.122 12.89 3.113 17.281-.02l3.155-2.25H268.05l.992 2.611c1.722 4.529 6.993 11.075 11.557 14.352l4.401 3.161v129.037c0 142.813-.441 133.248 6.373 138.109 2.912 2.077 4.158 2.226 18.127 2.167 61.04-.256 127.436-24.607 178.5-65.464 13.455-10.766 35.207-32.518 45.973-45.973 34.533-43.16 58.085-99.131 63.959-152 2.77-24.926 3.952-56.664 2.068-55.5-.61.377-1-1.139-1-3.89 0-2.479-.694-9.8-1.542-16.269-6.964-53.123-29.578-105.964-63.485-148.341C523.207 98.545 501.455 76.793 488 66.027c-42.221-33.782-94.015-56.013-148.046-63.542C329.08.969 286.007-.344 278 .595m-1.269 30.463c-42.862 3.806-83.569 17.43-120.231 40.24-9.098 5.66-27.559 19.429-35 26.103l-5 4.486 84.051 84.107c81.685 81.739 84.128 84.079 86.75 83.081L290 268.05V30l-2.25.139c-1.238.077-6.196.49-11.019.919M310 149.038V268.05l2.699 1.025c2.622.998 5.065-1.342 86.75-83.087l84.051-84.114-4.5-4.007c-25.869-23.034-59.83-42.686-93.01-53.823-19.565-6.566-46.053-11.783-68.24-13.44l-7.75-.578zM94.235 125.25c-37.469 44.277-59.222 97.95-63.631 157l-.578 7.75H268.05l1.025-2.697c.997-2.621-1.352-5.076-82.772-86.5C140.214 154.711 102.215 117 101.86 117c-.354 0-3.785 3.713-7.625 8.25m319.462 75.553c-81.42 81.424-83.769 83.879-82.772 86.5L331.95 290h238.024l-.578-7.75c-3.87-51.826-20.49-98.069-50.228-139.75-6.855-9.608-19.96-25.5-21.028-25.5-.355 0-38.354 37.711-84.443 83.803M.382 292.5c.002 6.6.164 9.17.359 5.711.196-3.459.195-8.859-.003-12S.38 285.9.382 292.5m330.543 20.197c-.997 2.621 1.352 5.076 82.772 86.5C459.786 445.289 497.804 483 498.181 483c1.494 0 17.504-20.23 25.746-32.533 26.879-40.122 41.809-83.699 45.469-132.717l.578-7.75H331.95zM315 449.251V569l5.25-.005c7.797-.008 30.596-3.571 44.25-6.915 42.063-10.302 82.552-31.5 114.5-59.947l4.5-4.007-84.25-84.312L315 329.501z"/></svg>