<svg xmlns="http://www.w3.org/2000/svg" viewBox="0 0 300 300"><path fill-rule="evenodd" d="M131.43 5.977C77.486 13.642 32.453 49.681 13.943 100c-1.72 4.675-4.303 13.45-5.739 19.5-2.351 9.9-2.613 12.951-2.613 30.5s.262 20.6 2.613 30.5c6.878 28.966 19.549 52.123 39.361 71.935s42.969 32.483 71.935 39.361c9.9 2.351 12.951 2.613 30.5 2.613s20.6-.262 30.5-2.613c28.966-6.878 52.123-19.549 71.935-39.361s32.483-42.969 39.361-71.935c2.351-9.9 2.613-12.951 2.613-30.5s-.262-20.6-2.613-30.5c-6.878-28.966-19.549-52.123-39.361-71.935C232.727 27.858 209.272 14.984 181 8.357c-8.276-1.94-13.995-2.544-27-2.852-9.075-.215-19.231-.003-22.57.472m2.07 20.168c-17.757 2.264-37.917 10.044-54.093 20.878-10.126 6.781-25.595 22.247-32.368 32.36-5.19 7.75-14.996 26.917-15.025 29.367-.011.981 9.533 1.25 44.425 1.25h44.439l11.118-34.25c6.115-18.837 12.218-37.627 13.561-41.753 1.344-4.127 2.443-7.84 2.443-8.25 0-.921-5.287-.776-14.5.398m18.5-.398c0 .41 1.099 4.123 2.443 8.25 1.343 4.126 7.446 22.915 13.561 41.753L179.122 110h44.439c34.892 0 44.436-.269 44.425-1.25-.029-2.45-9.835-21.617-15.025-29.367-6.773-10.113-22.242-25.579-32.368-32.36-16.755-11.221-36.376-18.631-55.567-20.984C154.972 24.806 152 24.74 152 25.747M28.631 120.25c-6.598 27.247-3.55 57.569 8.278 82.343 7.107 14.887 14.068 24.623 26.209 36.657 5.965 5.912 11.191 10.747 11.614 10.744.668-.005 27.768-82.196 27.768-84.216 0-.614-71.037-52.778-71.873-52.778-.132 0-1.03 3.263-1.996 7.25M233 139.099c-19.525 14.253-35.5 26.259-35.5 26.678 0 2.021 27.1 84.212 27.768 84.217 1.94.015 23.019-22.333 27.732-29.401 16.512-24.761 24.091-53.93 21.264-81.842-1.121-11.074-4.118-25.839-5.207-25.659-.307.05-16.532 11.753-36.057 26.007m-119.29 86.818-35.763 25.95 4.59 3.158c7.554 5.198 24.332 12.715 34.463 15.441 28.58 7.691 59.676 4.998 85.687-7.419 5.602-2.675 12.251-6.284 14.774-8.02l4.588-3.157-35.151-25.515c-19.333-14.033-35.662-25.711-36.288-25.951s-17.231 11.241-36.9 25.513"/></svg>