<svg xmlns="http://www.w3.org/2000/svg" viewBox="0 0 300 300"><path fill-rule="evenodd" d="m104.495 105.005-4.931 5.006 6.794 6.846 6.793 6.846-2.092 3.398C107.639 132.657 105 142.63 105 150s2.639 17.343 6.059 22.899l2.092 3.398-6.806 6.859-6.806 6.859 5.223 5.223 5.223 5.223 6.859-6.806 6.859-6.806 3.398 2.092C132.657 192.361 142.63 195 150 195s17.343-2.639 22.899-6.059l3.398-2.092 6.859 6.806 6.859 6.806 5.223-5.223 5.223-5.223-6.806-6.859-6.806-6.859 2.092-3.398C192.361 167.343 195 157.37 195 150s-2.639-17.343-6.059-22.899l-2.092-3.398 6.806-6.859 6.806-6.859-5.223-5.223-5.223-5.223-6.859 6.806-6.859 6.806-3.398-2.092C167.343 107.639 157.37 105 150 105s-17.343 2.639-22.899 6.059l-3.398 2.092-6.627-6.575c-3.644-3.617-6.857-6.576-7.139-6.576s-2.731 2.252-5.442 5.005m38.051 16.064c-5.752 1.432-13.216 6.579-16.408 11.312-4.405 6.532-5.644 10.571-5.56 18.119.132 11.745 6.261 21.311 16.964 26.478 6.989 3.373 17.927 3.373 24.916 0a31.32 31.32 0 0 0 14.52-14.52c3.373-6.989 3.373-17.927 0-24.916-6.149-12.737-20.967-19.827-34.432-16.473"/></svg>