<svg xmlns="http://www.w3.org/2000/svg" viewBox="0 0 393 300"><path fill-rule="evenodd" d="m151.495 15.005-4.931 5.006 6.794 6.846 6.793 6.846-2.092 3.398C154.616 42.693 152 52.627 152 60.105V67h-31.841c-35.502 0-38.959.476-44.833 6.169C70.842 77.515 69 84.071 69 95.682V105h-6.895c-7.478 0-17.412 2.616-23.004 6.059l-3.398 2.092-6.859-6.806-6.859-6.806-5.223 5.223-5.223 5.223 6.806 6.859 6.806 6.859-2.092 3.398C19.639 132.657 17 142.63 17 150s2.639 17.343 6.059 22.899l2.092 3.398-6.806 6.859-6.806 6.859 5.223 5.223 5.223 5.223 6.859-6.806 6.859-6.806 3.398 2.092C44.693 192.384 54.627 195 62.105 195H69v9.341c0 11.332 1.791 17.817 6.169 22.333 5.649 5.829 9.187 6.326 45.013 6.326H152v6.895c0 7.478 2.616 17.412 6.059 23.004l2.092 3.398-6.806 6.859-6.806 6.859 5.223 5.223 5.223 5.223 6.859-6.806 6.859-6.806 3.398 2.092C179.657 282.361 189.63 285 197 285s17.343-2.639 22.899-6.059l3.398-2.092 6.859 6.806 6.859 6.806 5.223-5.223 5.223-5.223-6.806-6.859-6.806-6.859 2.092-3.398c3.443-5.592 6.059-15.526 6.059-23.004V233h31.818c35.826 0 39.364-.497 45.013-6.326 4.378-4.516 6.169-11.001 6.169-22.333V195h6.895c7.478 0 17.412-2.616 23.004-6.059l3.398-2.092 6.859 6.806 6.859 6.806 5.223-5.223 5.223-5.223-6.806-6.859-6.806-6.859 2.092-3.398C374.361 167.343 377 157.37 377 150s-2.639-17.343-6.059-22.899l-2.092-3.398 6.806-6.859 6.806-6.859-5.223-5.223-5.223-5.223-6.859 6.806-6.859 6.806-3.398-2.092c-5.592-3.443-15.526-6.059-23.004-6.059H325v-9.341c0-11.332-1.791-17.817-6.169-22.333-5.649-5.829-9.187-6.326-45.013-6.326H242v-6.895c0-7.478-2.616-17.412-6.059-23.004l-2.092-3.398 6.806-6.859 6.806-6.859-5.223-5.223-5.223-5.223-6.859 6.806-6.859 6.806-3.398-2.092C214.343 17.639 204.37 15 197 15s-17.343 2.639-22.899 6.059l-3.398 2.092-6.627-6.575c-3.644-3.617-6.857-6.576-7.139-6.576s-2.731 2.252-5.442 5.005m38.051 16.064C175.848 34.48 164.98 50.42 167.434 63.5l.657 3.5h57.75l.679-3.092c1.61-7.329-2.263-18.651-8.52-24.908-6.938-6.938-18.973-10.293-28.454-7.931M85.461 84.246c-.263.69-.363 30.729-.22 66.754l.259 65.5h223v-133l-111.28-.254c-88.495-.203-111.378.002-111.759 1M194.75 98.212l-6.75 4.024v18.654l-4.75.305-4.75.305-.3 5.75-.3 5.75h9.989l.305 29.429c.292 28.104.401 29.556 2.411 32.25 3.758 5.038 7.849 6.689 16.569 6.689 4.321 0 8.313-.455 8.871-1.013.609-.609.749-3.254.352-6.638l-.662-5.625-5.593-.296c-8.118-.43-8.11-.398-8.127-30L202 133.091l6.75-.295 6.75-.296v-11l-6.722-.295-6.722-.295-.278-13.361-.278-13.361zM54.546 121.127c-5.684 1.332-13.188 6.479-16.408 11.254-4.405 6.532-5.644 10.571-5.56 18.119.093 8.246 2.829 14.907 8.422 20.5 6.257 6.257 17.579 10.13 24.908 8.52l3.092-.679v-57.608l-2.25-.603c-3.012-.807-7.401-.628-12.204.497m272.204-.496c-1.614.476-1.75 2.752-1.75 29.363v28.847l3.092.679c7.329 1.61 18.651-2.263 24.908-8.52 5.813-5.813 8.371-12.229 8.371-21 0-5.863-.523-8.582-2.393-12.458-3.031-6.278-8.236-11.503-14.298-14.352-4.637-2.18-14.459-3.582-17.93-2.559M167.48 236.092c-1.61 7.329 2.263 18.651 8.52 24.908 5.813 5.813 12.229 8.371 21 8.371s15.187-2.558 21-8.371c6.257-6.257 10.13-17.579 8.52-24.908l-.679-3.092h-57.682z"/></svg>