<svg xmlns="http://www.w3.org/2000/svg" viewBox="0 0 300 300"><path fill-rule="evenodd" d="m99.495 8.005-4.931 5.006 6.699 6.75 6.698 6.75-1.995 2.994c-2.57 3.859-5.966 14.732-5.966 19.1V52l-16.75.006c-9.213.003-18.345.448-20.294.99-1.95.541-5.1 2.588-7 4.547L52.5 61.106 52 80.801l-.5 19.694-6 .735c-3.613.443-8.785 2.116-13 4.207l-7 3.472-6.676-6.605-6.676-6.604-5.006 5.4-5.006 5.4 6.468 6.561 6.468 6.561-3 6.439c-4.325 9.284-5.567 18.693-3.67 27.793.827 3.962 2.829 9.778 4.451 12.925l2.949 5.721-6.619 6.745-6.619 6.744 4.931 5.006c2.711 2.753 5.397 5.013 5.967 5.023.571.009 3.738-2.918 7.038-6.505l6-6.522 6.081 3.065c3.345 1.686 9.083 3.58 12.75 4.208L52 191.406l.004 22.547c.003 20.585.173 22.825 1.952 25.743 3.854 6.321 5.44 6.752 26.858 7.304l19.412.5 2.201 6.085c2.358 6.517 5.11 11.009 9.865 16.1l2.974 3.185-4.797 8.183c-3.866 6.595-4.523 8.351-3.383 9.045.778.474 3.68 2.203 6.449 3.841l5.036 2.978 4.822-8.047c4.116-6.867 5.137-7.962 6.965-7.465 1.178.32 4.96 1.082 8.404 1.693 11.352 2.015 24.778-1.826 34.903-9.985l6.078-4.898 7.592 4.474c4.176 2.461 8.031 4.203 8.567 3.871 1.193-.737 7.454-11.548 6.955-12.008-.196-.181-3.873-2.456-8.17-5.054-5.499-3.325-7.646-5.163-7.246-6.204.312-.814.839-2.563 1.172-3.887l.604-2.407h23.157c26.627 0 28.338-.424 32.351-8.013 2.165-4.094 2.275-5.352 2.275-26.061v-21.76l5.159-1.107c2.837-.608 7.081-1.956 9.429-2.995l4.27-1.889 6.124 7.461 6.124 7.462 4.944-4.14c2.719-2.276 5.207-4.565 5.529-5.086s-1.997-4.143-5.153-8.05c-4.729-5.853-5.536-7.386-4.588-8.712 7.17-10.031 10.865-22.115 9.819-32.115-.33-3.162-1.67-8.696-2.978-12.299l-2.378-6.55 7.279-5.888 7.278-5.887-4.51-5.686c-2.48-3.127-4.734-5.685-5.008-5.685-.273 0-3.79 2.69-7.814 5.979-6.218 5.081-7.499 5.758-8.532 4.513-2.156-2.597-15.024-8.427-20.083-9.098l-4.911-.652V83.083c0-16.325-.17-17.996-2.25-22.121-1.644-3.26-3.452-5.068-6.712-6.712-4.216-2.126-5.651-2.25-26.047-2.25h-21.585l-1.142-6.669c-.628-3.667-2.502-9.405-4.165-12.75l-3.023-6.081 6.68-6.745 6.68-6.744-4.931-5.006C187.794 5.252 185.095 3 184.509 3s-3.878 2.837-7.315 6.304l-6.248 6.304-7.05-3.5c-6.084-3.02-8.272-3.558-15.961-3.925-10.129-.485-15.881.664-24.048 4.803l-5.613 2.844-6.358-6.415C108.419 5.887 105.303 3 104.991 3s-2.785 2.252-5.496 5.005M137.332 23.9c-10.699 2.748-20.196 13.143-21.933 24.008L114.744 52h59.998l-.835-4.469c-2.546-13.627-13.54-23.364-27.221-24.108-3.402-.185-7.612.03-9.354.477M67 149.494V232h165.012l-.256-82.25-.256-82.25-82.25-.256L67 66.988zm79.75-50.282-6.75 4.024V122h-10.1l.3 5.75.3 5.75 4.694.303 4.694.302.306 28.698c.284 26.589.453 28.946 2.306 32.084 3.112 5.269 7.564 7.113 17.175 7.113 4.778 0 8.485-.45 8.872-1.076.365-.591.36-3.516-.013-6.5l-.678-5.424h-4.737c-8.816 0-8.571.791-8.967-28.871l-.348-26.033 6.848-.298 6.848-.298v-11l-6.722-.295-6.722-.295-.278-13.361-.278-13.361zM42.594 117.645c-6.905 2.12-15.63 10.937-18.059 18.249-4.731 14.245 1.451 29.445 14.661 36.046 3.368 1.683 7.627 3.06 9.464 3.06H52v-59l-2.25.07c-1.237.038-4.458.747-7.156 1.575M247 145.5c0 23.789.256 29.5 1.322 29.5 3.443 0 10.992-3.525 14.882-6.948 6.295-5.542 9.17-11.883 9.627-21.237.32-6.571.012-8.479-2.129-13.156-3.259-7.117-9.457-13.049-16.315-15.615-3.004-1.124-5.895-2.044-6.425-2.044-.594 0-.962 11.267-.962 29.5M117 248.04c0 2.598 4.328 9.079 8.538 12.784 6.123 5.39 12.8 7.564 21.346 6.951 11.919-.856 22.551-8.559 25.569-18.525l.682-2.25h-28.068c-18.761 0-28.067.345-28.067 1.04"/></svg>