<svg xmlns="http://www.w3.org/2000/svg" viewBox="0 0 300 300"><path fill-rule="evenodd" d="M36.115 68.501c-5.983 1.866-10.835 6.818-12.642 12.903-2.189 7.369-2.189 129.823 0 137.192 1.853 6.241 6.689 11.047 13.039 12.958 7.189 2.163 219.787 2.163 226.976 0 6.35-1.911 11.186-6.717 13.039-12.958 2.189-7.369 2.189-129.823 0-137.192-1.853-6.241-6.689-11.047-13.039-12.958-6.954-2.093-220.651-2.041-227.373.055m2.346 15.745c-.263.69-.363 30.729-.22 66.754l.259 65.5h223v-133l-111.28-.254c-88.495-.203-111.378.002-111.759 1M147.75 98.212l-6.75 4.024v18.654l-4.75.305-4.75.305-.3 5.75-.3 5.75h9.989l.305 29.429c.292 28.104.401 29.556 2.411 32.25 3.758 5.038 7.849 6.689 16.569 6.689 4.321 0 8.313-.455 8.871-1.013.609-.609.749-3.254.352-6.638l-.662-5.625-5.593-.296c-8.118-.43-8.11-.398-8.127-30L155 133.091l6.75-.295 6.75-.296v-11l-6.722-.295-6.722-.295-.278-13.361-.278-13.361z"/></svg>