<svg xmlns="http://www.w3.org/2000/svg" viewBox="0 0 600 300"><path fill-rule="evenodd" d="m254.495 15.005-4.931 5.006 6.794 6.846 6.793 6.846-2.092 3.398C257.616 42.693 255 52.627 255 60.105V67h-31.818c-36.796 0-39.633.436-45.571 7.009-1.986 2.198-3.611 4.67-3.611 5.494 0 1.7-.864 1.869-2.916.57-1.198-.758-1.051-2.253.959-9.735 1.307-4.861 2.394-9.036 2.416-9.278.047-.51-11.375-4.026-13.142-4.046-.65-.008-1.408.773-1.685 1.736-.276.962-1.451 5.013-2.61 9L154.915 75h-5.868c-6.759 0-16.03 2.628-22.361 6.338-4.842 2.837-15.169 13.458-16.178 16.638-.811 2.555-1.347 2.537-11.378-.379-5.831-1.696-8.391-2.064-8.69-1.25-1.157 3.156-3.42 11.295-3.429 12.336-.006.65.777 1.408 1.739 1.685.963.276 5.012 1.451 9 2.61l7.25 2.107v5.868c0 6.759 2.628 16.03 6.338 22.361 2.837 4.842 13.458 15.169 16.638 16.178 2.555.811 2.537 1.347-.379 11.378-1.696 5.831-2.064 8.391-1.25 8.69 3.156 1.157 11.295 3.42 12.336 3.429.65.006 1.408-.777 1.685-1.739.276-.963 1.451-5.012 2.61-9l2.107-7.25h5.868c5.039 0 13.004-1.85 19.297-4.482 1.641-.687 1.75.939 1.75 26.216 0 30.191.622 34.217 6.169 39.94 5.649 5.829 9.187 6.326 45.013 6.326H255v6.895c0 7.478 2.616 17.412 6.059 23.004l2.092 3.398-6.806 6.859-6.806 6.859 5.223 5.223 5.223 5.223 6.859-6.806 6.859-6.806 3.398 2.092C282.657 282.361 292.63 285 300 285s17.343-2.639 22.899-6.059l3.398-2.092 6.859 6.806 6.859 6.806 5.223-5.223 5.223-5.223-6.806-6.859-6.806-6.859 2.092-3.398c3.443-5.592 6.059-15.526 6.059-23.004V233h31.818c35.826 0 39.364-.497 45.013-6.326 4.411-4.551 6.169-10.988 6.169-22.59v-9.599l7.817.355c4.299.195 9.493-.108 11.541-.673l3.725-1.029 4.181 8.431c2.3 4.637 4.544 8.431 4.987 8.431 1.172 0 12.749-5.936 12.749-6.537 0-.279-1.827-4.141-4.06-8.582l-4.06-8.075 5.435-5.697c5.986-6.276 9.294-12.003 11.326-19.609 1.557-5.828 1.768-16.587.418-21.293l-.94-3.28 8.44-4.187c4.643-2.302 8.441-4.548 8.441-4.991 0-1.172-5.936-12.749-6.537-12.749-.279 0-4.141 1.827-8.582 4.06l-8.075 4.06-5.697-5.435c-9.665-9.218-20.028-13.128-33.213-12.529l-7.896.359v-9.599c0-11.602-1.758-18.039-6.169-22.59-5.649-5.829-9.187-6.326-45.013-6.326H345v-6.895c0-7.478-2.616-17.412-6.059-23.004l-2.092-3.398 6.806-6.859 6.806-6.859-5.223-5.223-5.223-5.223-6.859 6.806-6.859 6.806-3.398-2.092C317.343 17.639 307.37 15 300 15s-17.343 2.639-22.899 6.059l-3.398 2.092-6.627-6.575c-3.644-3.617-6.857-6.576-7.139-6.576s-2.731 2.252-5.442 5.005m38.051 16.064C278.848 34.48 267.98 50.42 270.434 63.5l.657 3.5h57.75l.679-3.092c1.61-7.329-2.263-18.651-8.52-24.908-6.938-6.938-18.973-10.293-28.454-7.931M188.461 84.246c-.263.69-.363 30.729-.22 66.754l.259 65.5h223v-133l-111.28-.254c-88.495-.203-111.378.002-111.759 1M143.5 90.872c-9.101 2.379-16.505 8.397-20.552 16.705-1.88 3.859-2.398 6.544-2.398 12.423s.518 8.564 2.398 12.423c5.22 10.717 14.827 16.867 26.552 16.999 7.588.085 11.585-1.153 18.25-5.65l4.25-2.868V99.096l-4.25-2.841c-2.338-1.563-5.535-3.397-7.105-4.075-3.671-1.585-13.28-2.318-17.145-1.308m154.25 7.34-6.75 4.024v18.654l-4.75.305-4.75.305-.3 5.75-.3 5.75h9.989l.305 29.429c.292 28.104.401 29.556 2.411 32.25 3.758 5.038 7.849 6.689 16.569 6.689 4.321 0 8.313-.455 8.871-1.013.609-.609.749-3.254.352-6.638l-.662-5.625-5.593-.296c-8.118-.43-8.11-.398-8.127-30L305 133.091l6.75-.295 6.75-.296v-11l-6.722-.295-6.722-.295-.278-13.361-.278-13.361zM431.5 120.82l-3 .699-.266 27.924c-.177 18.566.087 28.278.787 28.978 1.938 1.938 16.009 1.192 21.128-1.12 5.925-2.675 12.452-9.19 15.181-15.152 2.957-6.458 2.957-17.84 0-24.298-2.656-5.802-8.606-11.838-14.462-14.673-4.799-2.323-14.468-3.5-19.368-2.358M270.48 236.092c-1.61 7.329 2.263 18.651 8.52 24.908 5.813 5.813 12.229 8.371 21 8.371s15.187-2.558 21-8.371c6.257-6.257 10.13-17.579 8.52-24.908l-.679-3.092h-57.682z"/></svg>