<svg xmlns="http://www.w3.org/2000/svg" viewBox="0 0 360 360"><path fill-rule="evenodd" d="M147.716 19.852c-7.384 4.346-7.332 4.063-2.278 12.387 2.509 4.133 4.562 7.936 4.562 8.451 0 .514-1.39 2.258-3.089 3.873-7.531 7.16-12.133 19.609-11.806 31.937l.212 8-5.843 3.293c-9.578 5.4-17.548 11.547-25.083 19.348-6.902 7.146-15.771 19.535-18.225 25.458l-1.207 2.914-7.876-.358c-8.788-.399-16.669 1.392-24.022 5.46l-4.44 2.456-6.818-6.766-6.818-6.766-5.223 5.223-5.223 5.223 6.806 6.859 6.806 6.859-2.092 3.398C32.639 162.657 30 172.63 30 180s2.639 17.343 6.059 22.899l2.092 3.398-6.806 6.859-6.806 6.859 5.223 5.223 5.223 5.223 6.818-6.766 6.818-6.766 4.44 2.456c7.353 4.068 15.234 5.859 24.022 5.46l7.876-.358 1.239 3.007c2.641 6.405 12.97 20.35 20.459 27.618 7.539 7.317 19.841 16.195 25.942 18.722l2.914 1.207-.358 7.876c-.243 5.348.179 9.721 1.315 13.626 1.37 4.713 1.433 5.906.351 6.604-.727.469-4.369 2.711-8.094 4.982l-6.773 4.128 2.175 3.622a655 655 0 0 1 3.773 6.365c.879 1.509 1.841 2.746 2.139 2.75.297.003 4.085-2.232 8.417-4.967l7.876-4.974 4.234 3.903c10.505 9.683 27.538 13.577 41.392 9.463 4.393-1.304 5.472-1.348 6.181-.25.473.732 2.717 4.379 4.988 8.104l4.128 6.773 3.622-2.175a655 655 0 0 1 6.365-3.773c1.509-.879 2.746-1.841 2.75-2.139.003-.297-2.232-4.085-4.967-8.417l-4.974-7.876 3.903-4.234c7.656-8.306 11.445-19.271 10.889-31.515l-.358-7.876 2.914-1.207c6.101-2.527 18.403-11.405 25.942-18.722 7.605-7.38 17.826-21.232 20.56-27.862 1.073-2.604 1.912-3.25 4.218-3.25H281v20h14.928l.286-9.615.286-9.615 5.738-1.773c14.223-4.395 25.36-15.874 29.797-30.713l1.261-4.215 9.602-.285 9.602-.284v-15l-9.602-.284-9.602-.285-1.261-4.215c-4.437-14.839-15.574-26.318-29.797-30.713l-5.738-1.773-.286-9.615-.286-9.615H281v20h-2.879c-2.306 0-3.145-.646-4.218-3.25-2.734-6.63-12.955-20.482-20.56-27.862-7.539-7.317-19.841-16.195-25.942-18.722l-2.914-1.207.358-7.889c.235-5.176-.176-9.713-1.196-13.193-.855-2.917-1.464-5.366-1.352-5.442.112-.075 3.474-2.06 7.471-4.411s7.515-4.673 7.817-5.161c.563-.912-5.017-11.394-6.581-12.36-.48-.297-4.222 1.494-8.315 3.979S214.825 45 214.31 45s-2.258-1.39-3.873-3.089c-9.309-9.791-28.417-14.534-42.028-10.431-2.7.813-5.035 1.151-5.188.75-.897-2.343-8.953-14.638-9.757-14.891-.53-.166-3.117.964-5.748 2.513m24.279 26.439c-12.685 3.591-21.871 15.952-21.971 29.566-.019 2.693.297 3.234 1.601 2.733C155.918 76.943 171.274 75 180 75c8.867 0 24.098 1.949 28.535 3.652 1.638.628 1.73.161 1.12-5.678-1.599-15.297-12.428-26.225-27.21-27.461-3.394-.283-7.878.051-10.45.778M170.5 90.606c-21.935 3.233-37.528 10.626-52.291 24.793-18.553 17.803-27.646 39.05-27.646 64.601 0 24.376 7.977 44.222 24.836 61.791 17.803 18.553 39.05 27.646 64.601 27.646 24.376 0 44.222-7.977 61.791-24.836 18.553-17.803 27.646-39.05 27.646-64.601s-9.093-46.798-27.646-64.601c-12.46-11.956-25.659-19.162-41.844-22.843-7.363-1.674-23.89-2.769-29.447-1.95m7.25 39.606-6.75 4.024v18.654l-4.75.305-4.75.305-.3 5.75-.3 5.75h9.989l.305 29.429c.292 28.104.401 29.556 2.411 32.25 3.758 5.038 7.849 6.689 16.569 6.689 4.321 0 8.313-.455 8.871-1.013.609-.609.749-3.254.352-6.638l-.662-5.625-5.593-.296c-8.118-.43-8.11-.398-8.127-30L185 165.091l6.75-.295 6.75-.296v-11l-6.722-.295-6.722-.295-.278-13.361-.278-13.361zM67.546 151.127c-5.684 1.332-13.188 6.479-16.408 11.254-4.405 6.532-5.644 10.571-5.56 18.119.177 15.736 11.284 27.471 27.618 29.178 5.621.588 6.083.491 5.456-1.143C76.949 204.098 75 188.867 75 180c0-8.726 1.943-24.082 3.59-28.375.513-1.336-.062-1.607-3.233-1.525-2.121.056-5.636.518-7.811 1.027m215.348-.526c-1.469.448-1.472 1.018-.038 6.695 2.178 8.627 2.174 36.795-.006 45.435l-1.573 6.23 3.368.632c8.292 1.556 19.353-2.528 25.612-9.456 6.319-6.994 7.243-9.563 7.243-20.137s-.924-13.143-7.243-20.137c-5.006-5.541-11.938-8.855-19.557-9.35-3.41-.222-6.923-.182-7.806.088M150.322 286.804c1.194 11.424 7.335 20.402 17.22 25.174 3.876 1.87 6.595 2.393 12.458 2.393s8.582-.523 12.458-2.393c9.95-4.803 16.01-13.597 17.197-24.952.61-5.839.518-6.306-1.12-5.678C204.098 283.051 188.867 285 180 285s-24.098-1.949-28.535-3.652c-1.634-.627-1.731-.165-1.143 5.456"/></svg>