<svg xmlns="http://www.w3.org/2000/svg" viewBox="0 0 300 300"><path fill-rule="evenodd" d="M63.594 53.041c-4.094 1.225-9.434 6.725-10.598 10.915-1.333 4.797-1.345 167.342-.013 171.986 1.3 4.532 6.561 9.837 10.973 11.062 4.798 1.333 167.29 1.333 172.088 0 4.412-1.225 9.673-6.53 10.973-11.062 1.332-4.644 1.32-167.189-.013-171.986-1.225-4.412-6.53-9.673-11.062-10.973-4.301-1.233-168.215-1.178-172.348.058M68 150v82h164V68H68zm79.75-50.788-6.75 4.024v18.654l-4.75.305-4.75.305-.3 5.75-.3 5.75h9.989l.305 29.429c.292 28.104.401 29.556 2.411 32.25 3.758 5.038 7.849 6.689 16.569 6.689 4.321 0 8.313-.455 8.871-1.013.609-.609.749-3.254.352-6.638l-.662-5.625-5.593-.296c-8.118-.43-8.11-.398-8.127-30L155 134.091l6.75-.295 6.75-.296v-11l-6.722-.295-6.722-.295-.278-13.361-.278-13.361z"/></svg>