<svg xmlns="http://www.w3.org/2000/svg" viewBox="0 0 300 300"><path fill-rule="evenodd" d="M131.334 46.481c-43.079 7.816-77.312 42.264-84.866 85.4-9.971 56.932 28.468 111.678 85.413 121.651 56.932 9.971 111.678-28.468 121.651-85.413 9.971-56.932-28.468-111.678-85.413-121.651-10.109-1.771-26.989-1.765-36.785.013m9.166 14.125c-21.935 3.233-37.528 10.626-52.291 24.793-18.553 17.803-27.646 39.05-27.646 64.601 0 24.376 7.977 44.222 24.836 61.791 17.803 18.553 39.05 27.646 64.601 27.646 24.376 0 44.222-7.977 61.791-24.836 18.553-17.803 27.646-39.05 27.646-64.601s-9.093-46.798-27.646-64.601c-12.46-11.956-25.659-19.162-41.844-22.843-7.363-1.674-23.89-2.769-29.447-1.95m7.25 39.606-6.75 4.024v18.654l-4.75.305-4.75.305-.3 5.75-.3 5.75h9.989l.305 29.429c.292 28.104.401 29.556 2.411 32.25 3.758 5.038 7.849 6.689 16.569 6.689 4.321 0 8.313-.455 8.871-1.013.609-.609.749-3.254.352-6.638l-.662-5.625-5.593-.296c-8.118-.43-8.11-.398-8.127-30L155 135.091l6.75-.295 6.75-.296v-11l-6.722-.295-6.722-.295-.278-13.361-.278-13.361z"/></svg>