<svg xmlns="http://www.w3.org/2000/svg" viewBox="0 0 900 300"><path fill-rule="evenodd" d="M291 7.931c-19.913 2.774-37.315 13.529-47.361 29.271L240 42.904v23.854l-21.75.487c-24.111.54-30.996 1.891-38.936 7.642C175.36 77.752 172 83.784 172 88.02c0 1.903-.731 1.98-18.804 1.98h-18.804l-4.946 3.132c-27.824 17.621-37.266 58.68-20.731 90.146 4.233 8.055 13.444 17.951 21.487 23.083l5.702 3.639h18.048c17.32 0 18.048.08 18.048 1.98 0 4.236 3.36 10.268 7.314 13.133 7.877 5.705 14.823 7.068 38.936 7.636l21.75.512v12.674c0 12.481.048 12.748 3.132 17.619 17.621 27.824 58.68 37.266 90.146 20.731 8.055-4.233 17.951-13.444 23.083-21.487l3.639-5.702V233h30v12.804c0 12.628.043 12.873 3.132 17.75 17.621 27.824 58.68 37.266 90.146 20.731 8.055-4.233 17.951-13.444 23.083-21.487l3.639-5.702V233h30v12.804c0 12.628.043 12.873 3.132 17.75 17.621 27.824 58.68 37.266 90.146 20.731 8.055-4.233 17.951-13.444 23.083-21.487l3.639-5.702v-23.854l21.75-.487c24.111-.54 30.996-1.891 38.936-7.642 3.954-2.865 7.314-8.897 7.314-13.133 0-1.903.731-1.98 18.804-1.98h18.804l4.946-3.132c27.824-17.621 37.266-58.68 20.731-90.146-4.233-8.055-13.444-17.951-21.487-23.083L764.096 90h-18.048C728.728 90 728 89.92 728 88.02c0-4.236-3.36-10.268-7.314-13.133-7.877-5.705-14.823-7.068-38.936-7.636L660 66.739V54.065c0-12.481-.048-12.748-3.132-17.619-17.621-27.824-58.68-37.266-90.146-20.731-8.055 4.233-17.951 13.444-23.083 21.487L540 42.904V67h-30V54.196c0-12.628-.043-12.873-3.132-17.75-17.621-27.824-58.68-37.266-90.146-20.731-8.055 4.233-17.951 13.444-23.083 21.487L390 42.904V67h-30V54.196c0-12.628-.043-12.873-3.132-17.75-7.572-11.957-21.809-22.206-36.5-26.277-8.334-2.309-21.597-3.32-29.368-2.238m-5.888 16.65c-6.579 1.769-16.139 6.755-19.199 10.012L263.651 37h73.698l-2.262-2.407c-3.176-3.381-12.676-8.251-19.629-10.062-7.365-1.918-23.123-1.893-30.346.05m150 0c-6.579 1.769-16.139 6.755-19.199 10.012L413.651 37h73.698l-2.262-2.407c-3.176-3.381-12.676-8.251-19.629-10.062-7.365-1.918-23.123-1.893-30.346.05m150 0c-6.579 1.769-16.139 6.755-19.199 10.012L563.651 37h73.698l-2.262-2.407c-3.176-3.381-12.676-8.251-19.629-10.062-7.365-1.918-23.123-1.893-30.346.05M255 62v5h90V57h-90zm150 0v5h90V57h-90zm150 0v5h90V57h-90zM194.942 83.944c-1.408.429-3.545 1.308-4.75 1.953L188 87.07v125.879l3.25 1.775c3.089 1.688 15.896 1.776 258.75 1.776s255.661-.088 258.75-1.776l3.25-1.775V87.051l-3.25-1.775c-3.087-1.687-16.014-1.784-257.25-1.944-139.7-.092-255.151.183-256.558.612M447.75 98.212l-6.75 4.024v18.654l-4.75.305-4.75.305-.3 5.75-.3 5.75h9.989l.305 29.297c.274 26.237.494 29.583 2.11 32.047 3.346 5.102 7.272 6.648 16.887 6.652 4.78.002 8.95-.415 9.267-.928.316-.512.283-3.416-.074-6.454l-.649-5.522-5.593-.296c-8.118-.43-8.11-.398-8.127-30L455 133.091l6.75-.295 6.75-.296v-11l-6.722-.295-6.722-.295-.278-13.361-.278-13.361zM150 150v45h22v-90h-22zm578 0v45h22v-90h-22zm-601.466-33.857c-3.664 4.353-7.273 11.758-9.042 18.55-1.93 7.409-1.91 22.281.039 29.765 1.811 6.953 6.681 16.453 10.062 19.629l2.407 2.262v-36.675c0-20.171-.185-36.674-.411-36.674s-1.601 1.414-3.055 3.143M770 150.5v36.849l2.407-2.262c3.381-3.176 8.251-12.676 10.062-19.629.842-3.233 1.531-9.964 1.531-14.958s-.689-11.725-1.531-14.958c-1.811-6.953-6.681-16.453-10.062-19.629L770 113.651zM255 238v5h90v-10h-90zm150 0v5h90v-10h-90zm150 0v5h90v-10h-90zm-290.087 27.407c3.176 3.381 12.676 8.251 19.629 10.062 7.542 1.964 22.374 1.964 29.916 0 6.953-1.811 16.453-6.681 19.629-10.062l2.262-2.407h-73.698zm150 0c3.176 3.381 12.676 8.251 19.629 10.062 7.542 1.964 22.374 1.964 29.916 0 6.953-1.811 16.453-6.681 19.629-10.062l2.262-2.407h-73.698zm150 0c3.176 3.381 12.676 8.251 19.629 10.062 7.542 1.964 22.374 1.964 29.916 0 6.953-1.811 16.453-6.681 19.629-10.062l2.262-2.407h-73.698z"/></svg>