<svg xmlns="http://www.w3.org/2000/svg" viewBox="0 0 600 300"><path fill-rule="evenodd" d="M48 72.057c-12.259 1.851-21.086 6.717-24.057 13.259-1.802 3.969-1.9 7.478-1.921 68.414-.025 72.379-.264 69.909 7.317 75.401 2.223 1.61 7.218 3.926 11.101 5.148l7.06 2.221h505l7.06-2.221c3.883-1.222 8.878-3.538 11.101-5.148C578.237 223.642 578 226.072 578 154c0-72.04.233-69.645-7.314-75.113-2.209-1.6-6.979-3.916-10.601-5.148L553.5 71.5l-250-.137C166 71.288 51.025 71.6 48 72.057m-3.058 15.887c-1.408.429-3.545 1.308-4.75 1.953L38 91.07v125.879l3.25 1.775c3.089 1.688 15.896 1.776 258.75 1.776s255.661-.088 258.75-1.776l3.25-1.775V91.051l-3.25-1.775c-3.087-1.687-16.014-1.784-257.25-1.944-139.7-.092-255.151.183-256.558.612m252.808 14.268-6.75 4.024v18.654l-4.75.305-4.75.305-.3 5.75-.3 5.75h9.989l.305 29.297c.274 26.237.494 29.583 2.11 32.047 3.346 5.102 7.272 6.648 16.887 6.652 4.78.002 8.95-.415 9.267-.928.316-.512.283-3.416-.074-6.454l-.649-5.522-5.593-.296c-8.118-.43-8.11-.398-8.127-30L305 137.091l6.75-.295 6.75-.296v-11l-6.722-.295-6.722-.295-.278-13.361-.278-13.361z"/></svg>