<svg xmlns="http://www.w3.org/2000/svg" viewBox="0 0 900 300"><path fill-rule="evenodd" d="m471.462 15.092-4.962 5.092 9.802 9.206c9.498 8.919 9.743 9.259 7.897 10.93-3.881 3.512-7.464 11.837-8.641 20.077l-1.157 8.103-24.701.267c-23.891.259-24.7.204-24.7-1.677 0-1.07-1.513-4.847-3.362-8.395l-3.362-6.449 10.362-7.248C434.337 41.012 439 37.43 439 37.038s-1.83-3.268-4.067-6.393c-2.542-3.549-4.511-5.412-5.25-4.967-.651.392-5.008 3.468-9.683 6.836-14.559 10.489-12.603 9.834-20.032 6.708L393.5 36.5h-158l-6.468 2.722c-7.429 3.126-5.473 3.781-20.032-6.708-4.675-3.368-9.032-6.444-9.683-6.836-.739-.445-2.708 1.418-5.25 4.967C191.83 33.77 190 36.646 190 37.038s4.663 3.974 10.362 7.96l10.362 7.248-3.362 6.449C205.513 62.243 204 65.949 204 66.93c0 1.442-1.133 1.904-5.891 2.401-12.656 1.323-22.891 7.622-25.057 15.422-.573 2.061-1.043 8.81-1.046 14.997-.003 6.188-.119 11.25-.256 11.249s-2.725-.946-5.75-2.101c-11.633-4.445-27.536-3.29-37.84 2.748l-4.389 2.573-6.893-6.84-6.893-6.84-5.223 5.223-5.223 5.223 6.806 6.859 6.806 6.859-2.092 3.398C107.639 133.657 105 143.63 105 151s2.639 17.343 6.059 22.899l2.092 3.398-6.806 6.859-6.806 6.859 5.223 5.223 5.223 5.223 6.758-6.685 6.757-6.685 7.376 3.674c6.652 3.314 8.318 3.712 17 4.056 9.328.37 13.532-.433 22.374-4.275 1.613-.7 1.752.21 1.772 11.597.031 17.538 2.147 21.506 14.351 26.904 4.438 1.963 4.455 1.991 3.482 5.514-1.252 4.535.295 20.669 2.439 25.439.866 1.925 2.486 4.865 3.601 6.533l2.026 3.033-10.428 7.915-10.428 7.916 2.28 3.052a376 376 0 0 1 4.217 5.77c1.066 1.495 2.293 2.732 2.726 2.75.897.035 21.374-15.612 22.218-16.979.304-.492 2.547-.039 4.984 1.006 9.139 3.917 11.849 3.947 89.51.97 77.502-2.97 79.569-3.154 87.399-7.774 1.865-1.1 3.776-1.639 4.246-1.196.47.442 6.108 4.199 12.528 8.348l11.674 7.544 3.99-6.364 3.991-6.365-10.825-7.157-10.825-7.158 3.161-6.672c2.745-5.794 3.149-7.692 3.073-14.422l-.088-7.75h62.394l.537 8.608c.446 7.149 1.119 9.78 3.974 15.531l3.437 6.924-10.324 7.219c-5.679 3.97-10.329 7.575-10.333 8.011-.01.91 7.827 11.707 8.497 11.707.244 0 5.683-3.751 12.087-8.336l11.643-8.336 6.132 2.586 6.132 2.586h160l6.132-2.586 6.132-2.586 11.643 8.336c6.404 4.585 11.843 8.336 12.087 8.336.67 0 8.507-10.797 8.497-11.707-.004-.436-4.654-4.041-10.333-8.011l-10.324-7.219 3.437-6.924c2.852-5.746 3.528-8.384 3.972-15.508.589-9.431.22-8.984 8.325-10.081 5.301-.717 15.656-5.395 18.144-8.196 3.365-3.789 4.788-9.086 4.788-17.822V198h5.29c7.047 0 16.015-2.425 22.514-6.088l5.304-2.99 6.591 6.039c3.624 3.321 6.88 6.039 7.233 6.039.354 0 2.876-2.287 5.606-5.083l4.962-5.083-7.277-6.667c-7.061-6.47-7.23-6.733-5.699-8.909 2.308-3.279 5.088-11.942 5.883-18.332.915-7.361-1.378-18.216-5.472-25.896l-3.166-5.94 6.322-7.114 6.322-7.114-5.456-4.916-5.457-4.916-6.549 6.864-6.549 6.865-3.451-1.86c-5.669-3.055-13.572-5.043-20.465-5.147l-6.486-.099-.006-9.576c-.003-5.268-.473-11.263-1.046-13.324-2.243-8.077-12.491-14.151-26.227-15.544-5.477-.556-7.28-1.157-8.36-2.787-1.313-1.982-.883-2.342 9.381-7.854 5.917-3.178 11.13-6.125 11.585-6.549 1-.934-4.927-13.019-6.385-13.019-1.11 0-22.881 11.646-24.301 12.999-.472.45-2.947-.506-5.5-2.125s-6.852-3.601-9.554-4.404-37.128-5.55-76.5-10.549c-74.401-9.448-81.268-9.961-89.159-6.664l-3.444 1.439-10.492-9.847c-5.771-5.416-10.734-9.848-11.03-9.848-.295-.001-2.77 2.29-5.5 5.091M511.5 41.681c-6.006 1.349-9.27 2.988-13.243 6.649-5.484 5.056-6.807 7.644-7.627 14.92l-.647 5.75h92.508c57.894 0 92.509-.356 92.509-.952 0-1.377-7.901-6.567-12-7.882-3.034-.973-146.566-19.361-148.702-19.05-.439.064-1.698.318-2.798.565M235 53.114c-6.309 2.49-15 11.103-15 14.865 0 .688 30.844 1.021 94.5 1.021s94.5-.333 94.5-1.021c0-.562-1.161-2.776-2.579-4.919-2.7-4.081-7.962-8.213-12.736-10.004-3.74-1.403-155.124-1.348-158.685.058m-41.5 32.68-5 1.706-.257 63.22-.258 63.221 2.95 1.525c1.622.839 6.013 1.969 9.757 2.51 9.62 1.391 490.614 1.365 499.191-.027 3.511-.57 7.677-1.704 9.258-2.522l2.874-1.486-.258-63.221-.257-63.22-5-1.706c-4.661-1.591-22.054-1.706-256.5-1.706s-251.839.115-256.5 1.706M447.75 99.43l-6.75 4.053V123h-10v11h10l.006 27.25c.003 14.988.45 28.851.993 30.807 2.154 7.754 10.348 11.674 21.831 10.445l6.416-.688-.623-4.546c-.343-2.501-.623-5.362-.623-6.358 0-1.501-.977-1.861-5.725-2.11-8.274-.433-8.243-.321-8.26-30.05L455 134h14v-11h-13.945l-.278-13.811-.277-13.812zm-304.016 22.611c-9.026 2.24-16.124 7.918-20.515 16.412-3.455 6.681-3.687 17.686-.52 24.696 7.767 17.198 29.863 22.989 45.051 11.807l4.25-3.129v-40.453l-2.75-2.633c-5.808-5.563-17.612-8.662-25.516-6.7M728 152.5V182h6.34c5.071 0 7.566-.612 12.46-3.058 9.911-4.952 15.172-12.876 15.975-24.058.7-9.751-1.646-15.915-8.766-23.035-6.276-6.276-12.438-8.849-21.191-8.849H728zm-522.393 83.082c-1.434 3.737-.602 16.507 1.321 20.276 2.608 5.112 8.752 10.473 14.536 12.681 4.649 1.776 6.668 1.752 78.792-.948 51.324-1.92 75.371-3.176 78.427-4.096 5.817-1.751 10.866-5.715 14.422-11.322 2.462-3.882 2.895-5.581 2.895-11.369V234h-94.893c-85.608 0-94.952.155-95.5 1.582M490 241.387c0 6.671.315 7.858 3.25 12.244 3.65 5.454 11.533 10.741 17.482 11.724 4.918.813 144.618.813 149.536 0 5.949-.983 13.832-6.27 17.482-11.724 2.935-4.386 3.25-5.573 3.25-12.244V234H490z"/></svg>