<svg xmlns="http://www.w3.org/2000/svg" viewBox="0 0 300 300"><path fill-rule="evenodd" d="M55.11 65.396c-5.126 2.841-5.037 1.627-5.075 68.807-.026 46.55.273 63.378 1.16 65.325C52.501 202.394 56.694 205 60 205s7.499-2.606 8.805-5.472c.881-1.934 1.195-17.437 1.195-59.075V84h160v56.55c0 61.356-.053 60.738 5.472 63.255 5.175 2.358 11.189.429 13.333-4.277.886-1.943 1.195-18.774 1.195-65.028s-.309-63.085-1.195-65.028c-2.591-5.686 1.256-5.475-99.005-5.437-74.693.029-92.756.289-94.69 1.361M90 150v45h120v-90H90zm15 0v30h90v-60h-90z"/></svg>