<svg xmlns="http://www.w3.org/2000/svg" viewBox="0 0 300 300"><path fill-rule="evenodd" d="M131.43 5.977C77.486 13.642 32.453 49.681 13.943 100c-1.72 4.675-4.303 13.45-5.739 19.5-2.351 9.9-2.613 12.951-2.613 30.5s.262 20.6 2.613 30.5c6.878 28.966 19.549 52.123 39.361 71.935s42.969 32.483 71.935 39.361c9.9 2.351 12.951 2.613 30.5 2.613s20.6-.262 30.5-2.613c28.966-6.878 52.123-19.549 71.935-39.361s32.483-42.969 39.361-71.935c2.351-9.9 2.613-12.951 2.613-30.5s-.262-20.6-2.613-30.5c-6.878-28.966-19.549-52.123-39.361-71.935C232.727 27.858 209.272 14.984 181 8.357c-8.276-1.94-13.995-2.544-27-2.852-9.075-.215-19.231-.003-22.57.472m2.07 20.168c-17.757 2.264-37.917 10.044-54.093 20.878C69.272 53.81 53.81 69.272 47.023 79.407c-24.962 37.272-28.802 84.043-10.114 123.186 6.856 14.361 13.983 24.481 25 35.498 42.732 42.732 107.967 48.852 158.684 14.886 10.135-6.787 25.597-22.249 32.384-32.384 29.105-43.459 29.105-97.727 0-141.186-6.787-10.135-22.249-25.597-32.384-32.384-26.044-17.442-56.594-24.765-87.093-20.878m5.234 25.372C102.11 58.451 77.274 84.441 70.426 123c-1.967 11.072-1.962 33.944.009 45.09 2.057 11.628 6.822 25.844 11.688 34.872 14.849 27.544 38.24 40.311 73.877 40.323 31.137.01 54.626-12.909 68.467-37.66 3.601-6.439 7.816-16.897 8.963-22.239l.669-3.114-12.677-3.174c-6.973-1.747-12.779-3.045-12.902-2.887-.124.159-.764 2.539-1.423 5.289-.658 2.75-2.992 8.651-5.185 13.113-6.725 13.685-18.135 23.126-32.454 26.856-7.56 1.969-22.38 1.963-29.963-.012-14.688-3.826-27.835-13.81-34.216-25.984-12.823-24.466-13.297-65.688-1.051-91.473 4.129-8.692 14.926-19.52 23.772-23.84 11.633-5.68 27.837-7.538 41.144-4.717 15.844 3.358 26.02 12.253 33.377 29.176 1.791 4.12 3.432 7.668 3.647 7.883.46.459 23.645-4.982 24.386-5.723 1.067-1.067-5.085-15.335-9.547-22.143-9.566-14.594-24.67-25.558-41.507-30.129-8.551-2.321-30.871-2.863-40.766-.99"/></svg>