<svg xmlns="http://www.w3.org/2000/svg" viewBox="0 0 300 300"><path fill-rule="evenodd" d="M131.43 5.977C77.486 13.642 32.453 49.681 13.943 100c-1.72 4.675-4.303 13.45-5.739 19.5-2.351 9.9-2.613 12.951-2.613 30.5s.262 20.6 2.613 30.5c6.878 28.966 19.549 52.123 39.361 71.935s42.969 32.483 71.935 39.361c9.9 2.351 12.951 2.613 30.5 2.613s20.6-.262 30.5-2.613c28.966-6.878 52.123-19.549 71.935-39.361s32.483-42.969 39.361-71.935c2.351-9.9 2.613-12.951 2.613-30.5s-.262-20.6-2.613-30.5c-6.878-28.966-19.549-52.123-39.361-71.935C232.727 27.858 209.272 14.984 181 8.357c-8.276-1.94-13.995-2.544-27-2.852-9.075-.215-19.231-.003-22.57.472m2.07 20.168c-17.757 2.264-37.917 10.044-54.093 20.878C69.272 53.81 53.81 69.272 47.023 79.407c-24.962 37.272-28.802 84.043-10.114 123.186 6.856 14.361 13.983 24.481 25 35.498 42.732 42.732 107.967 48.852 158.684 14.886 10.135-6.787 25.597-22.249 32.384-32.384 29.105-43.459 29.105-97.727 0-141.186-6.787-10.135-22.249-25.597-32.384-32.384-26.044-17.442-56.594-24.765-87.093-20.878m-5.5 25.79C98.703 58.119 81.676 76.556 81.764 102c.047 13.401 4.498 23.456 14.441 32.621 9.469 8.728 18.842 12.518 51.295 20.737 32.997 8.358 39.093 10.843 45.798 18.677 6.554 7.657 7.334 18.359 2.046 28.074-4.406 8.096-13.823 14.133-26.143 16.761-8.614 1.837-25.753 1.418-34.605-.845-19.702-5.039-29.956-14.948-34.469-33.31l-1.745-7.097-5.441.286c-2.993.157-8.366.581-11.941.941l-6.5.655.31 4.5c1.008 14.644 7.411 28.456 18.089 39.018 12.345 12.21 26.375 17.863 49.737 20.037 40.89 3.805 71.923-13.497 79.842-44.515 4.199-16.448-1.199-34.69-13.582-45.896-11.102-10.047-20.998-14.021-56.396-22.647-31.563-7.691-38.473-10.682-43.161-18.681-2.157-3.682-2.71-5.881-2.696-10.724.021-7.62 2.549-12.83 8.962-18.475 13.876-12.215 51.617-12.035 66.045.315 4.627 3.961 9.979 13.397 10.914 19.241 1.071 6.699.886 6.621 13.811 5.814L218 106.76v-3.67c0-5.463-2.633-14.785-6.167-21.84-7.91-15.784-25.109-26.649-47.833-30.215-9.84-1.544-26.38-1.131-36 .9"/></svg>