<svg xmlns="http://www.w3.org/2000/svg" viewBox="0 0 300 300"><path fill-rule="evenodd" d="M0 150.003v150.003l150.25-.253 150.25-.253.253-149.75L301.007 0H0zm.487.497c0 82.5.118 116.102.263 74.672.144-41.431.144-108.931 0-150C.605 34.102.487 68 .487 150.5M20 150v130h260V20H20zM147.12 45.75c-1.917 12.315-2.139 17.82-2.13 52.744l.01 38.993-29.75-29.609C88.177 80.933 79.131 72.924 64.596 63.03l-4.904-3.338 3.338 4.904c9.894 14.535 17.903 23.581 44.848 50.654L137.487 145h-39.38c-35.338 0-40.753.219-52.744 2.131C38.013 148.302 32 149.594 32 150s6.013 1.698 13.363 2.869C57.354 154.781 62.769 155 98.107 155h39.38l-29.609 29.75c-26.945 27.073-34.954 36.119-44.848 50.654l-3.338 4.904 4.904-3.338c14.535-9.894 23.581-17.903 50.654-44.848L145 162.513v39.38c0 35.338.219 40.753 2.131 52.744C148.302 261.987 149.594 268 150 268s1.698-6.013 2.869-13.363c1.912-11.991 2.131-17.406 2.131-52.744v-39.38l29.75 29.601c28.495 28.353 32.928 32.304 48.75 43.453l7 4.933-4.933-7c-11.149-15.822-15.1-20.255-43.453-48.75L162.513 155l38.993.016c35.352.015 40.278-.189 52.744-2.178 7.563-1.207 13.75-2.506 13.75-2.887 0-.38-6.187-1.655-13.75-2.831-12.315-1.917-17.82-2.139-52.744-2.13l-38.993.01 29.601-29.75c28.353-28.495 32.304-32.928 43.453-48.75l4.933-7-7 4.933c-15.822 11.149-20.255 15.1-48.75 43.453L155 137.487l.016-38.993c.015-35.352-.189-40.278-2.178-52.744-1.207-7.562-2.506-13.75-2.887-13.75-.38 0-1.655 6.188-2.831 13.75"/></svg>