<svg xmlns="http://www.w3.org/2000/svg" viewBox="0 0 300 300"><path fill-rule="evenodd" d="M0 150.003v150.003l150.25-.253 150.25-.253.253-149.75L301.007 0H0zm.487.497c0 82.5.118 116.102.263 74.672.144-41.431.144-108.931 0-150C.605 34.102.487 68 .487 150.5M20 150v130h260V20H20zm118.173-98.988c-19.171 2.677-34.234 13.158-42.186 29.357-3.367 6.86-7.942 23.024-6.826 24.119.845.829 23.313 3.426 23.882 2.761.352-.412 1.191-3.323 1.864-6.47 2.699-12.62 10.724-23.408 20.917-28.117 3.753-1.734 6.552-2.161 14.176-2.161 8.372-.001 10.174.33 15.178 2.787 7.544 3.705 16.055 12.888 18.351 19.799 2.09 6.292 1.624 16.731-.978 21.921-.963 1.921-9.491 11.142-18.952 20.492-13.294 13.139-17.938 18.415-20.448 23.23-4.025 7.722-6.111 17.253-6.134 28.02L137 195h22.704l.568-8.75c1.03-15.878 2.385-18.158 22.732-38.25 15.752-15.554 18.125-18.334 21.346-25 6.941-14.367 6.949-28.656.022-42.858-6.51-13.349-20.324-24.086-35.485-27.579-8.374-1.929-22.787-2.657-30.714-1.551M133 227v13h27v-26h-27z"/></svg>