<svg xmlns="http://www.w3.org/2000/svg" viewBox="0 0 300 300"><path fill-rule="evenodd" d="M134.047 61.138c-30.294 5.023-58.962 29.521-69.092 59.042-8.761 25.533-5.965 53.163 7.7 76.088 9.216 15.462 26.771 30.559 43.441 37.359 20.277 8.272 47.531 8.272 67.808 0 21.392-8.727 40.996-28.331 49.723-49.723 8.272-20.277 8.272-47.531 0-67.808-8.727-21.392-28.331-40.996-49.723-49.723-13.759-5.613-34.463-7.787-49.857-5.235m3.453 20.293c-15.303 3.024-25.902 8.743-37.016 19.971-13.561 13.7-19.87 29.13-19.87 48.598 0 19.806 6.295 34.968 20.356 49.03s29.224 20.356 49.03 20.356 34.968-6.295 49.03-20.356 20.356-29.224 20.356-49.03-6.295-34.968-20.356-49.03C185.891 87.832 171.665 81.506 153 80.504c-5.109-.274-11.293.095-15.5.927m-.235 20.111c-17.134 4.614-31.268 18.853-35.734 36-4.507 17.303.78 35.718 13.861 48.279 20.283 19.477 51.071 18.946 70.429-1.213 19.066-19.856 19.066-49.36 0-69.216-12.513-13.03-31.495-18.445-48.556-13.85"/></svg>